<svg width="78" height="78" viewBox="0 0 78 78" fill="none" xmlns="http://www.w3.org/2000/svg">
<path d="M39.384 49.288C38.216 49.288 37.056 49.136 35.904 48.832C34.752 48.512 33.776 48.064 32.976 47.488L34.488 44.512C35.128 44.976 35.872 45.344 36.72 45.616C37.568 45.888 38.424 46.024 39.288 46.024C40.264 46.024 41.032 45.832 41.592 45.448C42.152 45.064 42.432 44.536 42.432 43.864C42.432 43.224 42.184 42.72 41.688 42.352C41.192 41.984 40.392 41.8 39.288 41.8H37.512V39.232L42.192 33.928L42.624 35.32H33.816V32.2H45.576V34.72L40.92 40.024L38.952 38.896H40.08C42.144 38.896 43.704 39.36 44.76 40.288C45.816 41.216 46.344 42.408 46.344 43.864C46.344 44.808 46.096 45.696 45.6 46.528C45.104 47.344 44.344 48.008 43.32 48.52C42.296 49.032 40.984 49.288 39.384 49.288Z" fill="#0A87B0"/>
<rect x="4" y="4" width="70" height="70" rx="6" stroke="#0A87B0" stroke-width="8"/>
</svg>
