<svg width="78" height="78" viewBox="0 0 78 78" fill="none" xmlns="http://www.w3.org/2000/svg">
<path d="M33.792 49V46.48L40.272 40.36C40.784 39.896 41.16 39.48 41.4 39.112C41.64 38.744 41.8 38.408 41.88 38.104C41.976 37.8 42.024 37.52 42.024 37.264C42.024 36.592 41.792 36.08 41.328 35.728C40.88 35.36 40.216 35.176 39.336 35.176C38.632 35.176 37.976 35.312 37.368 35.584C36.776 35.856 36.272 36.28 35.856 36.856L33.024 35.032C33.664 34.072 34.56 33.312 35.712 32.752C36.864 32.192 38.192 31.912 39.696 31.912C40.944 31.912 42.032 32.12 42.96 32.536C43.904 32.936 44.632 33.504 45.144 34.24C45.672 34.976 45.936 35.856 45.936 36.88C45.936 37.424 45.864 37.968 45.72 38.512C45.592 39.04 45.32 39.6 44.904 40.192C44.504 40.784 43.912 41.448 43.128 42.184L37.752 47.248L37.008 45.832H46.488V49H33.792Z" fill="#0A87B0"/>
<rect x="4" y="4" width="70" height="70" rx="6" stroke="#0A87B0" stroke-width="8"/>
</svg>
