<svg width="208" height="808" viewBox="0 0 208 808" fill="none" xmlns="http://www.w3.org/2000/svg">
<rect x="60" width="18" height="734" fill="url(#paint0_linear_597_2)"/>
<rect y="708" width="18" height="55" transform="rotate(-90 0 708)" fill="url(#paint1_linear_597_2)"/>
<rect x="90" width="18" height="734" fill="url(#paint2_linear_597_2)"/>
<rect y="678" width="18" height="55" transform="rotate(-90 0 678)" fill="url(#paint3_linear_597_2)"/>
<path d="M69 734C69 746.856 72.8122 759.423 79.9545 770.112C87.0968 780.801 97.2484 789.132 109.126 794.052C121.003 798.972 134.072 800.259 146.681 797.751C159.29 795.243 170.872 789.052 179.962 779.962C189.052 770.872 195.243 759.29 197.751 746.681C200.259 734.072 198.972 721.003 194.052 709.126C189.132 697.248 180.801 687.097 170.112 679.955C148.5 669 136 672 134 672M134 698.627C140.996 698.627 147.835 700.702 153.652 704.589C159.469 708.475 164.003 714 166.68 720.463C169.358 726.927 170.058 734.039 168.693 740.901C167.328 747.763 163.959 754.065 159.012 759.012C154.065 763.959 147.763 767.328 140.901 768.693C134.039 770.058 126.927 769.358 120.463 766.68C114 764.003 108.475 759.469 104.588 753.652C101.48 749 99 738.4 99 734" stroke="url(#paint4_angular_597_2)" stroke-width="17.8"/>
<defs>
<linearGradient id="paint0_linear_597_2" x1="69" y1="0" x2="69" y2="734" gradientUnits="userSpaceOnUse">
<stop stop-color="#083A82"/>
<stop offset="1" stop-color="#0BA9C5"/>
</linearGradient>
<linearGradient id="paint1_linear_597_2" x1="8.99998" y1="708" x2="8.99998" y2="763" gradientUnits="userSpaceOnUse">
<stop stop-color="#0BA9C5"/>
<stop offset="1" stop-color="#0BA9C5" stop-opacity="0"/>
</linearGradient>
<linearGradient id="paint2_linear_597_2" x1="99" y1="0" x2="99" y2="734" gradientUnits="userSpaceOnUse">
<stop stop-color="#083A82"/>
<stop offset="1" stop-color="#0BA9C5"/>
</linearGradient>
<linearGradient id="paint3_linear_597_2" x1="8.99998" y1="678" x2="8.99998" y2="733" gradientUnits="userSpaceOnUse">
<stop stop-color="#0BA9C5"/>
<stop offset="1" stop-color="#0BA9C5" stop-opacity="0"/>
</linearGradient>
<radialGradient id="paint4_angular_597_2" cx="0" cy="0" r="1" gradientUnits="userSpaceOnUse" gradientTransform="translate(134 734) rotate(180) scale(75)">
<stop offset="0.243" stop-color="#0BA9C5" stop-opacity="0"/>
<stop offset="1" stop-color="#0BA9C5"/>
</radialGradient>
</defs>
</svg>
