<svg width="1189" height="676" viewBox="0 0 1189 676" fill="none" xmlns="http://www.w3.org/2000/svg">
<path fill-rule="evenodd" clip-rule="evenodd" d="M1235.09 78.7759C1235.09 78.7759 1256.2 129.473 1262.52 136.863C1268.84 144.253 1290.51 178.495 1338.92 156.74C1356.63 148.777 1366.18 137.222 1371.17 125.773C1380.48 104.404 1375.39 79.5263 1358.98 62.9363C1345.97 49.7845 1324.39 38.6372 1292.3 53.0612L1307.44 86.7524C1307.44 86.7524 1326.65 76.9813 1335.23 96.0708C1343.81 115.16 1323.75 123.04 1323.75 123.04C1323.75 123.04 1305.06 131.19 1296.78 112.758C1288.49 94.3254 1273.2 61.6263 1273.2 61.6263L1235.08 78.7599L1235.09 78.7759Z" fill="url(#paint0_angular_563_69)" fill-opacity="0.5"/>
<path fill-rule="evenodd" clip-rule="evenodd" d="M988.196 189.738C988.196 189.738 1009.31 240.435 1015.63 247.825C1021.95 255.214 1043.62 289.457 1092.03 267.702C1109.75 259.739 1119.29 248.184 1124.28 236.735C1133.59 215.366 1128.5 190.488 1112.09 173.898C1099.08 160.746 1077.5 149.599 1045.41 164.023L1060.55 197.714C1060.55 197.714 1079.77 187.943 1088.34 207.033C1096.92 226.122 1076.86 234.002 1076.86 234.002C1076.86 234.002 1058.17 242.152 1049.89 223.719C1041.6 205.287 1026.31 172.588 1026.31 172.588L988.189 189.722L988.196 189.738Z" fill="url(#paint1_angular_563_69)" fill-opacity="0.5"/>
<path fill-rule="evenodd" clip-rule="evenodd" d="M741.308 300.699C741.308 300.699 762.421 351.397 768.74 358.786C775.06 366.176 796.735 400.418 845.139 378.664C862.857 370.701 872.406 359.146 877.39 347.697C886.699 326.328 881.611 301.45 865.198 284.86C852.194 271.708 830.616 260.561 798.522 274.985L813.665 308.676C813.665 308.676 832.876 298.905 841.456 317.994C850.035 337.084 829.974 344.964 829.974 344.964C829.974 344.964 811.283 353.114 802.999 334.681C794.714 316.249 779.422 283.55 779.422 283.55L741.3 300.683L741.308 300.699Z" fill="url(#paint2_angular_563_69)" fill-opacity="0.5"/>
<path fill-rule="evenodd" clip-rule="evenodd" d="M494.419 411.661C494.419 411.661 515.532 462.358 521.851 469.748C528.171 477.138 549.846 511.38 598.25 489.625C615.968 481.662 625.517 470.107 630.501 458.658C639.81 437.289 634.722 412.411 618.309 395.822C605.305 382.67 583.727 371.522 551.634 385.946L566.776 419.638C566.776 419.638 585.987 409.866 594.567 428.956C603.147 448.046 583.085 455.925 583.085 455.925C583.085 455.925 564.394 464.075 556.11 445.643C547.826 427.211 532.533 394.512 532.533 394.512L494.411 411.645L494.419 411.661Z" fill="url(#paint3_angular_563_69)" fill-opacity="0.5"/>
<path fill-rule="evenodd" clip-rule="evenodd" d="M247.53 522.623C247.53 522.623 268.643 573.32 274.963 580.71C281.282 588.1 302.957 622.342 351.361 600.587C369.079 592.624 378.628 581.069 383.612 569.62C392.921 548.251 387.833 523.373 371.42 506.783C358.417 493.631 336.838 482.484 304.745 496.908L319.887 530.599C319.887 530.599 339.098 520.828 347.678 539.918C356.258 559.007 336.196 566.887 336.196 566.887C336.196 566.887 317.505 575.037 309.221 556.605C300.937 538.172 285.644 505.473 285.644 505.473L247.523 522.607L247.53 522.623Z" fill="url(#paint4_angular_563_69)" fill-opacity="0.5"/>
<path fill-rule="evenodd" clip-rule="evenodd" d="M0.640835 633.585C0.640835 633.585 21.7539 684.282 28.0737 691.672C34.3934 699.061 56.0685 733.303 104.472 711.549C122.19 703.586 131.739 692.031 136.723 680.582C146.032 659.213 140.944 634.335 124.531 617.745C111.528 604.593 89.9492 593.446 57.8558 607.87L72.998 641.561C72.998 641.561 92.2094 631.79 100.789 650.879C109.369 669.969 89.307 677.849 89.307 677.849C89.307 677.849 70.6162 685.999 62.3319 667.566C54.0477 649.134 38.7556 616.435 38.7556 616.435L0.633628 633.568L0.640835 633.585Z" fill="url(#paint5_angular_563_69)" fill-opacity="0.5"/>
<path d="M1240.52 163.541C1241.74 136.22 1220.62 113.085 1193.33 111.866C1166.05 110.648 1142.93 131.807 1141.71 159.128C1140.48 186.449 1161.6 209.584 1188.89 210.803C1216.17 212.021 1239.29 190.862 1240.52 163.541Z" fill="white" fill-opacity="0.25"/>
<path d="M1487.4 52.5793C1488.63 25.2587 1467.51 2.12306 1440.22 0.904429C1412.94 -0.314201 1389.82 20.8456 1388.6 48.1663C1387.37 75.4869 1408.49 98.6225 1435.78 99.8411C1463.06 101.06 1486.18 79.8999 1487.4 52.5793Z" fill="white" fill-opacity="0.25"/>
<path d="M993.627 274.503C994.854 247.182 973.73 224.047 946.445 222.828C919.16 221.609 896.046 242.769 894.818 270.09C893.591 297.41 914.715 320.546 942 321.765C969.285 322.983 992.399 301.823 993.627 274.503Z" fill="white" fill-opacity="0.25"/>
<path d="M746.738 385.464C747.965 358.144 726.841 335.008 699.556 333.79C672.271 332.571 649.157 353.731 647.93 381.051C646.702 408.372 667.826 431.508 695.111 432.726C722.397 433.945 745.51 412.785 746.738 385.464Z" fill="white" fill-opacity="0.25"/>
<path d="M499.849 496.426C501.076 469.106 479.952 445.97 452.667 444.751C425.382 443.533 402.268 464.693 401.041 492.013C399.813 519.334 420.937 542.469 448.222 543.688C475.508 544.907 498.622 523.747 499.849 496.426Z" fill="white" fill-opacity="0.25"/>
<path d="M252.96 607.388C254.187 580.067 233.064 556.932 205.778 555.713C178.493 554.494 155.379 575.654 154.152 602.975C152.924 630.295 174.048 653.431 201.334 654.65C228.619 655.868 251.733 634.709 252.96 607.388Z" fill="white" fill-opacity="0.25"/>
<path fill-rule="evenodd" clip-rule="evenodd" d="M1349.84 333.789C1349.84 333.789 1370.95 384.486 1377.27 391.876C1383.59 399.266 1405.27 433.508 1453.67 411.753C1471.39 403.79 1480.94 392.235 1485.92 380.786C1495.23 359.417 1490.14 334.54 1473.73 317.95C1460.73 304.798 1439.15 293.65 1407.05 308.075L1422.2 341.766C1422.2 341.766 1441.41 331.995 1449.99 351.084C1458.57 370.174 1438.51 378.053 1438.51 378.053C1438.51 378.053 1419.82 386.203 1411.53 367.771C1403.25 349.339 1387.95 316.64 1387.95 316.64L1349.83 333.773L1349.84 333.789Z" fill="url(#paint6_angular_563_69)" fill-opacity="0.5"/>
<path fill-rule="evenodd" clip-rule="evenodd" d="M1102.95 444.751C1102.95 444.751 1124.06 495.448 1130.38 502.838C1136.7 510.228 1158.38 544.47 1206.78 522.715C1224.5 514.752 1234.05 503.197 1239.03 491.748C1248.34 470.379 1243.25 445.501 1226.84 428.911C1213.84 415.76 1192.26 404.612 1160.17 419.036L1175.31 452.727C1175.31 452.727 1194.52 442.956 1203.1 462.046C1211.68 481.135 1191.62 489.015 1191.62 489.015C1191.62 489.015 1172.93 497.165 1164.64 478.733C1156.36 460.3 1141.07 427.601 1141.07 427.601L1102.94 444.735L1102.95 444.751Z" fill="url(#paint7_angular_563_69)" fill-opacity="0.5"/>
<path fill-rule="evenodd" clip-rule="evenodd" d="M856.062 555.713C856.062 555.713 877.175 606.41 883.495 613.8C889.814 621.189 911.489 655.432 959.893 633.677C977.611 625.714 987.16 614.159 992.144 602.71C1001.45 581.341 996.365 556.463 979.952 539.873C966.949 526.721 945.37 515.574 913.277 529.998L928.419 563.689C928.419 563.689 947.631 553.918 956.21 573.008C964.79 592.097 944.728 599.977 944.728 599.977C944.728 599.977 926.037 608.127 917.753 589.694C909.469 571.262 894.177 538.563 894.177 538.563L856.055 555.697L856.062 555.713Z" fill="url(#paint8_angular_563_69)" fill-opacity="0.5"/>
<path fill-rule="evenodd" clip-rule="evenodd" d="M609.173 666.674C609.173 666.674 630.286 717.372 636.606 724.761C642.926 732.151 664.601 766.393 713.005 744.639C730.722 736.676 740.271 725.121 745.255 713.672C754.564 692.303 749.476 667.425 733.063 650.835C720.06 637.683 698.481 626.536 666.388 640.96L681.53 674.651C681.53 674.651 700.742 664.88 709.321 683.969C717.901 703.059 697.839 710.939 697.839 710.939C697.839 710.939 679.148 719.089 670.864 700.656C662.58 682.224 647.288 649.525 647.288 649.525L609.166 666.658L609.173 666.674Z" fill="url(#paint9_angular_563_69)" fill-opacity="0.5"/>
<path fill-rule="evenodd" clip-rule="evenodd" d="M362.284 777.636C362.284 777.636 383.397 828.333 389.717 835.723C396.037 843.113 417.712 877.355 466.116 855.6C483.833 847.637 493.383 836.082 498.366 824.633C507.675 803.264 502.587 778.386 486.174 761.796C473.171 748.645 451.592 737.497 419.499 751.921L434.641 785.613C434.641 785.613 453.853 775.841 462.432 794.931C471.012 814.02 450.95 821.9 450.95 821.9C450.95 821.9 432.259 830.05 423.975 811.618C415.691 793.186 400.399 760.487 400.399 760.487L362.277 777.62L362.284 777.636Z" fill="url(#paint10_angular_563_69)" fill-opacity="0.5"/>
<path fill-rule="evenodd" clip-rule="evenodd" d="M115.395 888.598C115.395 888.598 136.508 939.295 142.828 946.685C149.148 954.075 170.823 988.317 219.227 966.562C236.944 958.599 246.494 947.044 251.477 935.595C260.787 914.226 255.698 889.348 239.285 872.758C226.282 859.606 204.703 848.459 172.61 862.883L187.752 896.574C187.752 896.574 206.964 886.803 215.544 905.893C224.123 924.982 204.061 932.862 204.061 932.862C204.061 932.862 185.37 941.012 177.086 922.58C168.802 904.147 153.51 871.448 153.51 871.448L115.388 888.582L115.395 888.598Z" fill="url(#paint11_angular_563_69)" fill-opacity="0.5"/>
<path d="M1355.27 418.554C1356.5 391.234 1335.37 368.098 1308.09 366.879C1280.8 365.661 1257.69 386.821 1256.46 414.141C1255.23 441.462 1276.36 464.597 1303.64 465.816C1330.93 467.035 1354.04 445.875 1355.27 418.554Z" fill="white" fill-opacity="0.25"/>
<path d="M1602.16 307.593C1603.39 280.272 1582.26 257.136 1554.98 255.918C1527.69 254.699 1504.58 275.859 1503.35 303.179C1502.12 330.5 1523.25 353.636 1550.53 354.854C1577.82 356.073 1600.93 334.913 1602.16 307.593Z" fill="white" fill-opacity="0.25"/>
<path d="M1108.38 529.516C1109.61 502.195 1088.48 479.06 1061.2 477.841C1033.91 476.622 1010.8 497.782 1009.57 525.103C1008.35 552.424 1029.47 575.559 1056.75 576.778C1084.04 577.996 1107.15 556.837 1108.38 529.516Z" fill="white" fill-opacity="0.25"/>
<path d="M861.492 640.478C862.72 613.157 841.596 590.022 814.31 588.803C787.025 587.584 763.911 608.744 762.684 636.065C761.457 663.385 782.581 686.521 809.866 687.74C837.151 688.958 860.265 667.798 861.492 640.478Z" fill="white" fill-opacity="0.25"/>
<path d="M614.603 751.439C615.831 724.119 594.707 700.983 567.422 699.765C540.136 698.546 517.022 719.706 515.795 747.026C514.568 774.347 535.692 797.483 562.977 798.701C590.262 799.92 613.376 778.76 614.603 751.439Z" fill="white" fill-opacity="0.25"/>
<path d="M367.714 862.401C368.942 835.081 347.818 811.945 320.533 810.726C293.247 809.508 270.134 830.668 268.906 857.988C267.679 885.309 288.803 908.444 316.088 909.663C343.373 910.882 366.487 889.722 367.714 862.401Z" fill="white" fill-opacity="0.25"/>
<path fill-rule="evenodd" clip-rule="evenodd" d="M1464.94 590.202C1464.94 590.202 1486.05 640.899 1492.37 648.289C1498.69 655.678 1520.37 689.921 1568.77 668.166C1586.49 660.203 1596.04 648.648 1601.02 637.199C1610.33 615.83 1605.24 590.952 1588.83 574.362C1575.83 561.21 1554.25 550.063 1522.16 564.487L1537.3 598.178C1537.3 598.178 1556.51 588.407 1565.09 607.496C1573.67 626.586 1553.61 634.466 1553.61 634.466C1553.61 634.466 1534.92 642.616 1526.63 624.183C1518.35 605.751 1503.06 573.052 1503.06 573.052L1464.93 590.186L1464.94 590.202Z" fill="url(#paint12_angular_563_69)" fill-opacity="0.5"/>
<path fill-rule="evenodd" clip-rule="evenodd" d="M1218.05 701.163C1218.05 701.163 1239.16 751.861 1245.48 759.25C1251.8 766.64 1273.48 800.882 1321.88 779.128C1339.6 771.165 1349.15 759.61 1354.13 748.161C1363.44 726.792 1358.35 701.914 1341.94 685.324C1328.94 672.172 1307.36 661.025 1275.27 675.449L1290.41 709.14C1290.41 709.14 1309.62 699.369 1318.2 718.458C1326.78 737.548 1306.72 745.428 1306.72 745.428C1306.72 745.428 1288.03 753.578 1279.74 735.145C1271.46 716.713 1256.17 684.014 1256.17 684.014L1218.04 701.147L1218.05 701.163Z" fill="url(#paint13_angular_563_69)" fill-opacity="0.5"/>
<path fill-rule="evenodd" clip-rule="evenodd" d="M971.162 812.125C971.162 812.125 992.276 862.822 998.595 870.212C1004.91 877.602 1026.59 911.844 1074.99 890.089C1092.71 882.126 1102.26 870.571 1107.24 859.122C1116.55 837.753 1111.47 812.875 1095.05 796.285C1082.05 783.134 1060.47 771.986 1028.38 786.41L1043.52 820.102C1043.52 820.102 1062.73 810.33 1071.31 829.42C1079.89 848.509 1059.83 856.389 1059.83 856.389C1059.83 856.389 1041.14 864.539 1032.85 846.107C1024.57 827.675 1009.28 794.975 1009.28 794.975L971.155 812.109L971.162 812.125Z" fill="url(#paint14_angular_563_69)" fill-opacity="0.5"/>
<path fill-rule="evenodd" clip-rule="evenodd" d="M724.273 923.087C724.273 923.087 745.387 973.784 751.706 981.174C758.026 988.563 779.701 1022.81 828.105 1001.05C845.823 993.088 855.372 981.533 860.356 970.084C869.665 948.715 864.577 923.837 848.164 907.247C835.16 894.095 813.582 882.948 781.488 897.372L796.631 931.063C796.631 931.063 815.842 921.292 824.422 940.382C833.001 959.471 812.94 967.351 812.94 967.351C812.94 967.351 794.249 975.501 785.965 957.069C777.68 938.636 762.388 905.937 762.388 905.937L724.266 923.071L724.273 923.087Z" fill="url(#paint15_angular_563_69)" fill-opacity="0.5"/>
<path fill-rule="evenodd" clip-rule="evenodd" d="M477.385 1034.05C477.385 1034.05 498.498 1084.75 504.818 1092.14C511.137 1099.53 532.812 1133.77 581.216 1112.01C598.934 1104.05 608.483 1092.49 613.467 1081.05C622.776 1059.68 617.688 1034.8 601.275 1018.21C588.271 1005.06 566.693 993.91 534.6 1008.33L549.742 1042.03C549.742 1042.03 568.953 1032.25 577.533 1051.34C586.113 1070.43 566.051 1078.31 566.051 1078.31C566.051 1078.31 547.36 1086.46 539.076 1068.03C530.792 1049.6 515.499 1016.9 515.499 1016.9L477.377 1034.03L477.385 1034.05Z" fill="url(#paint16_angular_563_69)" fill-opacity="0.5"/>
<path fill-rule="evenodd" clip-rule="evenodd" d="M230.496 1145.01C230.496 1145.01 251.609 1195.71 257.928 1203.1C264.248 1210.49 285.923 1244.73 334.327 1222.97C352.045 1215.01 361.594 1203.46 366.578 1192.01C375.887 1170.64 370.799 1145.76 354.386 1129.17C341.383 1116.02 319.804 1104.87 287.711 1119.3L302.853 1152.99C302.853 1152.99 322.064 1143.22 330.644 1162.31C339.224 1181.39 319.162 1189.27 319.162 1189.27C319.162 1189.27 300.471 1197.42 292.187 1178.99C283.903 1160.56 268.61 1127.86 268.61 1127.86L230.489 1144.99L230.496 1145.01Z" fill="url(#paint17_angular_563_69)" fill-opacity="0.5"/>
<path d="M1470.37 674.967C1471.6 647.646 1450.47 624.511 1423.19 623.292C1395.9 622.073 1372.79 643.233 1371.56 670.554C1370.33 697.874 1391.46 721.01 1418.74 722.229C1446.03 723.447 1469.14 702.287 1470.37 674.967Z" fill="white" fill-opacity="0.25"/>
<path d="M1717.26 564.005C1718.49 536.684 1697.36 513.549 1670.08 512.33C1642.79 511.111 1619.68 532.271 1618.45 559.592C1617.22 586.913 1638.35 610.048 1665.63 611.267C1692.92 612.485 1716.03 591.326 1717.26 564.005Z" fill="white" fill-opacity="0.25"/>
<path d="M1223.48 785.928C1224.71 758.608 1203.59 735.472 1176.3 734.254C1149.01 733.035 1125.9 754.195 1124.67 781.515C1123.45 808.836 1144.57 831.972 1171.86 833.19C1199.14 834.409 1222.25 813.249 1223.48 785.928Z" fill="white" fill-opacity="0.25"/>
<path d="M976.593 896.89C977.82 869.569 956.696 846.434 929.411 845.215C902.126 843.997 879.012 865.156 877.784 892.477C876.557 919.798 897.681 942.933 924.966 944.152C952.251 945.371 975.365 924.211 976.593 896.89Z" fill="white" fill-opacity="0.25"/>
<path d="M729.704 1007.85C730.931 980.531 709.807 957.396 682.522 956.177C655.237 954.958 632.123 976.118 630.896 1003.44C629.668 1030.76 650.792 1053.89 678.077 1055.11C705.363 1056.33 728.477 1035.17 729.704 1007.85Z" fill="white" fill-opacity="0.25"/>
<path d="M482.815 1118.81C484.042 1091.49 462.918 1068.36 435.633 1067.14C408.348 1065.92 385.234 1087.08 384.007 1114.4C382.779 1141.72 403.903 1164.86 431.188 1166.08C458.474 1167.29 481.588 1146.13 482.815 1118.81Z" fill="white" fill-opacity="0.25"/>
<path fill-rule="evenodd" clip-rule="evenodd" d="M1211.86 368.304C1211.86 368.304 1187.97 318.857 1186.64 309.225C1185.31 299.593 1174.09 260.651 1222.49 238.896C1240.21 230.933 1255.19 231.463 1267.06 235.337C1289.22 242.563 1304.45 262.884 1305.96 286.172C1307.16 304.628 1301.17 328.165 1269.08 342.589L1253.94 308.898C1253.94 308.898 1274 301.018 1265.42 281.929C1256.84 262.839 1237.63 272.611 1237.63 272.611C1237.63 272.611 1219.12 281.177 1227.41 299.61C1235.69 318.042 1249.99 351.187 1249.99 351.187L1211.87 368.32L1211.86 368.304Z" fill="url(#paint18_angular_563_69)" fill-opacity="0.5"/>
<path fill-rule="evenodd" clip-rule="evenodd" d="M964.975 479.266C964.975 479.266 941.079 429.819 939.749 420.187C938.418 410.555 927.201 371.613 975.605 349.858C993.323 341.895 1008.3 342.425 1020.17 346.299C1042.33 353.524 1057.56 373.846 1059.07 397.134C1060.27 415.59 1054.28 439.127 1022.19 453.551L1007.05 419.86C1007.05 419.86 1027.11 411.98 1018.53 392.891C1009.95 373.801 990.738 383.572 990.738 383.572C990.738 383.572 972.235 392.139 980.519 410.571C988.803 429.004 1003.1 462.148 1003.1 462.148L964.982 479.282L964.975 479.266Z" fill="url(#paint19_angular_563_69)" fill-opacity="0.5"/>
<path fill-rule="evenodd" clip-rule="evenodd" d="M718.086 590.228C718.086 590.228 694.19 540.781 692.86 531.149C691.529 521.517 680.312 482.574 728.716 460.82C746.434 452.856 761.415 453.387 773.285 457.261C795.446 464.486 810.672 484.807 812.182 508.096C813.384 526.551 807.394 550.089 775.301 564.513L760.159 530.822C760.159 530.822 780.22 522.942 771.641 503.852C763.061 484.763 743.85 494.534 743.85 494.534C743.85 494.534 725.346 503.101 733.63 521.533C741.914 539.965 756.215 573.11 756.215 573.11L718.093 590.244L718.086 590.228Z" fill="url(#paint20_angular_563_69)" fill-opacity="0.5"/>
<path fill-rule="evenodd" clip-rule="evenodd" d="M471.197 701.189C471.197 701.189 447.301 651.743 445.971 642.111C444.64 632.478 433.423 593.536 481.827 571.781C499.545 563.818 514.526 564.349 526.396 568.222C548.557 575.448 563.783 595.769 565.293 619.057C566.495 637.513 560.505 661.051 528.412 675.475L513.27 641.783C513.27 641.783 533.332 633.904 524.752 614.814C516.172 595.725 496.961 605.496 496.961 605.496C496.961 605.496 478.457 614.062 486.741 632.495C495.026 650.927 509.326 684.072 509.326 684.072L471.204 701.205L471.197 701.189Z" fill="url(#paint21_angular_563_69)" fill-opacity="0.5"/>
<path fill-rule="evenodd" clip-rule="evenodd" d="M224.308 812.151C224.308 812.151 200.413 762.704 199.082 753.072C197.751 743.44 186.534 704.498 234.938 682.743C252.656 674.78 267.637 675.31 279.507 679.184C301.668 686.409 316.894 706.731 318.404 730.019C319.606 748.475 313.616 772.012 281.523 786.436L266.381 752.745C266.381 752.745 286.443 744.865 277.863 725.776C269.283 706.686 250.072 716.457 250.072 716.457C250.072 716.457 231.568 725.024 239.852 743.456C248.137 761.889 262.437 795.033 262.437 795.033L224.315 812.167L224.308 812.151Z" fill="url(#paint22_angular_563_69)" fill-opacity="0.5"/>
<path fill-rule="evenodd" clip-rule="evenodd" d="M1458.75 257.342C1458.75 257.342 1434.86 207.896 1433.53 198.264C1432.2 188.632 1420.98 149.689 1469.38 127.934C1487.1 119.971 1502.08 120.502 1513.95 124.376C1536.11 131.601 1551.34 151.922 1552.85 175.21C1554.05 193.666 1548.06 217.204 1515.97 231.628L1500.83 197.937C1500.83 197.937 1520.89 190.057 1512.31 170.967C1503.73 151.878 1484.52 161.649 1484.52 161.649C1484.52 161.649 1466.01 170.215 1474.3 188.648C1482.58 207.08 1496.88 240.225 1496.88 240.225L1458.76 257.358L1458.75 257.342Z" fill="url(#paint23_angular_563_69)" fill-opacity="0.25"/>
<path d="M1152.08 307.968C1173.33 325.188 1176.6 356.345 1159.4 377.558C1142.2 398.772 1111.03 402.009 1089.78 384.789C1068.54 367.568 1065.26 336.412 1082.46 315.198C1099.66 293.985 1130.83 290.747 1152.08 307.968Z" fill="white" fill-opacity="0.25"/>
<path d="M1398.97 197.006C1420.21 214.226 1423.49 245.383 1406.29 266.596C1389.09 287.81 1357.92 291.047 1336.67 273.827C1315.42 256.607 1312.15 225.45 1329.35 204.236C1346.55 183.023 1377.72 179.786 1398.97 197.006Z" fill="white" fill-opacity="0.25"/>
<path d="M905.191 418.929C926.437 436.15 929.714 467.306 912.51 488.52C895.307 509.733 864.138 512.971 842.892 495.75C821.646 478.53 818.369 447.373 835.573 426.16C852.776 404.946 883.945 401.709 905.191 418.929Z" fill="white" fill-opacity="0.25"/>
<path d="M658.302 529.891C679.548 547.111 682.825 578.268 665.622 599.482C648.418 620.695 617.249 623.932 596.003 606.712C574.758 589.492 571.48 558.335 588.684 537.122C605.887 515.908 637.056 512.671 658.302 529.891Z" fill="white" fill-opacity="0.25"/>
<path d="M411.413 640.853C432.659 658.073 435.936 689.23 418.733 710.443C401.529 731.657 370.36 734.894 349.114 717.674C327.869 700.454 324.591 669.297 341.795 648.083C358.998 626.87 390.167 623.633 411.413 640.853Z" fill="white" fill-opacity="0.25"/>
<path d="M164.524 751.815C185.77 769.035 189.047 800.192 171.844 821.405C154.641 842.619 123.471 845.856 102.225 828.636C80.9796 811.415 77.7026 780.259 94.9059 759.045C112.109 737.831 143.278 734.594 164.524 751.815Z" fill="white" fill-opacity="0.25"/>
<path fill-rule="evenodd" clip-rule="evenodd" d="M1326.79 624.017C1326.79 624.017 1302.9 574.57 1301.57 564.938C1300.23 555.306 1289.02 516.364 1337.42 494.609C1355.14 486.646 1370.12 487.176 1381.99 491.05C1404.15 498.275 1419.38 518.597 1420.89 541.885C1422.09 560.341 1416.1 583.878 1384.01 598.302L1368.86 564.611C1368.86 564.611 1388.93 556.731 1380.35 537.642C1371.77 518.552 1352.55 528.323 1352.55 528.323C1352.55 528.323 1334.05 536.89 1342.34 555.322C1350.62 573.755 1364.92 606.899 1364.92 606.899L1326.8 624.033L1326.79 624.017Z" fill="url(#paint24_angular_563_69)" fill-opacity="0.5"/>
<path fill-rule="evenodd" clip-rule="evenodd" d="M1079.9 734.979C1079.9 734.979 1056.01 685.532 1054.68 675.9C1053.35 666.268 1042.13 627.325 1090.53 605.571C1108.25 597.608 1123.23 598.138 1135.1 602.012C1157.26 609.237 1172.49 629.558 1174 652.847C1175.2 671.302 1169.21 694.84 1137.12 709.264L1121.98 675.573C1121.98 675.573 1142.04 667.693 1133.46 648.603C1124.88 629.514 1105.67 639.285 1105.67 639.285C1105.67 639.285 1087.16 647.852 1095.45 666.284C1103.73 684.717 1118.03 717.861 1118.03 717.861L1079.91 734.995L1079.9 734.979Z" fill="url(#paint25_angular_563_69)" fill-opacity="0.5"/>
<path fill-rule="evenodd" clip-rule="evenodd" d="M833.013 845.94C833.013 845.94 809.118 796.494 807.787 786.862C806.457 777.229 795.24 738.287 843.644 716.532C861.361 708.569 876.342 709.1 888.213 712.974C910.373 720.199 925.599 740.52 927.109 763.808C928.311 782.264 922.322 805.802 890.228 820.226L875.086 786.535C875.086 786.535 895.148 778.655 886.568 759.565C877.989 740.476 858.777 750.247 858.777 750.247C858.777 750.247 840.273 758.814 848.558 777.246C856.842 795.678 871.142 828.823 871.142 828.823L833.021 845.956L833.013 845.94Z" fill="url(#paint26_angular_563_69)" fill-opacity="0.5"/>
<path fill-rule="evenodd" clip-rule="evenodd" d="M586.124 956.902C586.124 956.902 562.229 907.455 560.898 897.823C559.568 888.191 548.351 849.249 596.755 827.494C614.472 819.531 629.453 820.061 641.324 823.935C663.484 831.161 678.71 851.482 680.22 874.77C681.422 893.226 675.433 916.763 643.339 931.187L628.197 897.496C628.197 897.496 648.259 889.616 639.679 870.527C631.1 851.437 611.888 861.209 611.888 861.209C611.888 861.209 593.384 869.775 601.669 888.208C609.953 906.64 624.254 939.785 624.254 939.785L586.132 956.918L586.124 956.902Z" fill="url(#paint27_angular_563_69)" fill-opacity="0.5"/>
<path fill-rule="evenodd" clip-rule="evenodd" d="M339.236 1067.86C339.236 1067.86 315.34 1018.42 314.01 1008.78C312.679 999.153 301.462 960.211 349.866 938.456C367.583 930.493 382.564 931.023 394.435 934.897C416.595 942.122 431.822 962.444 433.331 985.732C434.534 1004.19 428.544 1027.73 396.45 1042.15L381.308 1008.46C381.308 1008.46 401.37 1000.58 392.79 981.489C384.211 962.399 364.999 972.17 364.999 972.17C364.999 972.17 346.496 980.737 354.78 999.169C363.064 1017.6 377.365 1050.75 377.365 1050.75L339.243 1067.88L339.236 1067.86Z" fill="url(#paint28_angular_563_69)" fill-opacity="0.5"/>
<path fill-rule="evenodd" clip-rule="evenodd" d="M1573.68 513.055C1573.68 513.055 1549.78 463.609 1548.45 453.976C1547.12 444.344 1535.91 405.402 1584.31 383.647C1602.03 375.684 1617.01 376.214 1628.88 380.088C1651.04 387.314 1666.27 407.635 1667.78 430.923C1668.98 449.379 1662.99 472.916 1630.89 487.341L1615.75 453.649C1615.75 453.649 1635.81 445.77 1627.23 426.68C1618.66 407.59 1599.44 417.362 1599.44 417.362C1599.44 417.362 1580.94 425.928 1589.22 444.361C1597.51 462.793 1611.81 495.938 1611.81 495.938L1573.69 513.071L1573.68 513.055Z" fill="url(#paint29_angular_563_69)" fill-opacity="0.5"/>
<path d="M1267.01 563.68C1288.25 580.901 1291.53 612.058 1274.33 633.271C1257.12 654.485 1225.95 657.722 1204.71 640.501C1183.46 623.281 1180.19 592.124 1197.39 570.911C1214.59 549.697 1245.76 546.46 1267.01 563.68Z" fill="white" fill-opacity="0.25"/>
<path d="M1513.9 452.719C1535.14 469.939 1538.42 501.096 1521.22 522.309C1504.01 543.523 1472.84 546.76 1451.6 529.54C1430.35 512.319 1427.07 481.163 1444.28 459.949C1461.48 438.736 1492.65 435.498 1513.9 452.719Z" fill="white" fill-opacity="0.25"/>
<path d="M1020.12 674.642C1041.36 691.862 1044.64 723.019 1027.44 744.233C1010.23 765.446 979.065 768.683 957.82 751.463C936.574 734.243 933.297 703.086 950.5 681.873C967.703 660.659 998.872 657.422 1020.12 674.642Z" fill="white" fill-opacity="0.25"/>
<path d="M773.229 785.604C794.475 802.824 797.752 833.981 780.549 855.194C763.346 876.408 732.176 879.645 710.931 862.425C689.685 845.205 686.408 814.048 703.611 792.834C720.814 771.621 751.984 768.384 773.229 785.604Z" fill="white" fill-opacity="0.25"/>
<path d="M526.34 896.566C547.586 913.786 550.863 944.943 533.66 966.156C516.457 987.37 485.288 990.607 464.042 973.387C442.796 956.166 439.519 925.01 456.722 903.796C473.925 882.583 505.095 879.345 526.34 896.566Z" fill="white" fill-opacity="0.25"/>
<path d="M279.452 1007.53C300.697 1024.75 303.975 1055.9 286.771 1077.12C269.568 1098.33 238.399 1101.57 217.153 1084.35C195.907 1067.13 192.63 1035.97 209.833 1014.76C227.037 993.544 258.206 990.307 279.452 1007.53Z" fill="white" fill-opacity="0.25"/>
<path fill-rule="evenodd" clip-rule="evenodd" d="M1441.72 879.73C1441.72 879.73 1417.82 830.283 1416.49 820.651C1415.16 811.019 1403.94 772.077 1452.35 750.322C1470.07 742.359 1485.05 742.889 1496.92 746.763C1519.08 753.988 1534.3 774.31 1535.81 797.598C1537.02 816.053 1531.03 839.591 1498.93 854.015L1483.79 820.324C1483.79 820.324 1503.85 812.444 1495.27 793.355C1486.69 774.265 1467.48 784.036 1467.48 784.036C1467.48 784.036 1448.98 792.603 1457.26 811.035C1465.55 829.468 1479.85 862.612 1479.85 862.612L1441.73 879.746L1441.72 879.73Z" fill="url(#paint30_angular_563_69)" fill-opacity="0.5"/>
<path fill-rule="evenodd" clip-rule="evenodd" d="M1194.83 990.692C1194.83 990.692 1170.93 941.245 1169.6 931.613C1168.27 921.981 1157.06 883.038 1205.46 861.283C1223.18 853.32 1238.16 853.851 1250.03 857.725C1272.19 864.95 1287.42 885.271 1288.93 908.559C1290.13 927.015 1284.14 950.553 1252.04 964.977L1236.9 931.286C1236.9 931.286 1256.96 923.406 1248.38 904.316C1239.8 885.227 1220.59 894.998 1220.59 894.998C1220.59 894.998 1202.09 903.565 1210.37 921.997C1218.66 940.429 1232.96 973.574 1232.96 973.574L1194.84 990.707L1194.83 990.692Z" fill="url(#paint31_angular_563_69)" fill-opacity="0.5"/>
<path fill-rule="evenodd" clip-rule="evenodd" d="M947.941 1101.65C947.941 1101.65 924.045 1052.21 922.715 1042.57C921.384 1032.94 910.167 994 958.571 972.245C976.289 964.282 991.27 964.812 1003.14 968.686C1025.3 975.912 1040.53 996.233 1042.04 1019.52C1043.24 1037.98 1037.25 1061.51 1005.16 1075.94L990.014 1042.25C990.014 1042.25 1010.08 1034.37 1001.5 1015.28C992.916 996.188 973.704 1005.96 973.704 1005.96C973.704 1005.96 955.201 1014.53 963.485 1032.96C971.769 1051.39 986.07 1084.54 986.07 1084.54L947.948 1101.67L947.941 1101.65Z" fill="url(#paint32_angular_563_69)" fill-opacity="0.5"/>
<path fill-rule="evenodd" clip-rule="evenodd" d="M701.052 1212.61C701.052 1212.61 677.156 1163.17 675.826 1153.54C674.495 1143.9 663.278 1104.96 711.682 1083.21C729.4 1075.24 744.381 1075.77 756.251 1079.65C778.412 1086.87 793.638 1107.19 795.148 1130.48C796.35 1148.94 790.36 1172.48 758.267 1186.9L743.125 1153.21C743.125 1153.21 763.186 1145.33 754.607 1126.24C746.027 1107.15 726.815 1116.92 726.815 1116.92C726.815 1116.92 708.312 1125.49 716.596 1143.92C724.88 1162.35 739.181 1195.5 739.181 1195.5L701.059 1212.63L701.052 1212.61Z" fill="url(#paint33_angular_563_69)" fill-opacity="0.5"/>
<path fill-rule="evenodd" clip-rule="evenodd" d="M454.163 1323.58C454.163 1323.58 430.268 1274.13 428.937 1264.5C427.606 1254.87 416.389 1215.92 464.793 1194.17C482.511 1186.21 497.492 1186.74 509.362 1190.61C531.523 1197.84 546.749 1218.16 548.259 1241.44C549.461 1259.9 543.471 1283.44 511.378 1297.86L496.236 1264.17C496.236 1264.17 516.297 1256.29 507.718 1237.2C499.138 1218.11 479.927 1227.88 479.927 1227.88C479.927 1227.88 461.423 1236.45 469.707 1254.88C477.991 1273.31 492.292 1306.46 492.292 1306.46L454.17 1323.59L454.163 1323.58Z" fill="url(#paint34_angular_563_69)" fill-opacity="0.5"/>
<path fill-rule="evenodd" clip-rule="evenodd" d="M1688.61 768.768C1688.61 768.768 1664.71 719.321 1663.38 709.689C1662.05 700.057 1650.83 661.115 1699.24 639.36C1716.96 631.397 1731.94 631.927 1743.81 635.801C1765.97 643.026 1781.19 663.348 1782.7 686.636C1783.91 705.092 1777.92 728.629 1745.82 743.053L1730.68 709.362C1730.68 709.362 1750.74 701.482 1742.16 682.393C1733.58 663.303 1714.37 673.074 1714.37 673.074C1714.37 673.074 1695.87 681.641 1704.15 700.074C1712.44 718.506 1726.74 751.651 1726.74 751.651L1688.61 768.784L1688.61 768.768Z" fill="url(#paint35_angular_563_69)" fill-opacity="0.5"/>
<path d="M1381.93 819.393C1403.18 836.614 1406.46 867.77 1389.25 888.984C1372.05 910.197 1340.88 913.434 1319.64 896.214C1298.39 878.994 1295.11 847.837 1312.32 826.624C1329.52 805.41 1360.69 802.173 1381.93 819.393Z" fill="white" fill-opacity="0.25"/>
<path d="M1628.82 708.432C1650.07 725.652 1653.35 756.809 1636.14 778.022C1618.94 799.236 1587.77 802.473 1566.52 785.253C1545.28 768.032 1542 736.876 1559.21 715.662C1576.41 694.449 1607.58 691.211 1628.82 708.432Z" fill="white" fill-opacity="0.25"/>
<path d="M1135.05 930.355C1156.29 947.575 1159.57 978.732 1142.37 999.946C1125.16 1021.16 1093.99 1024.4 1072.75 1007.18C1051.5 989.956 1048.22 958.799 1065.43 937.586C1082.63 916.372 1113.8 913.135 1135.05 930.355Z" fill="white" fill-opacity="0.25"/>
<path d="M888.157 1041.32C909.403 1058.54 912.68 1089.69 895.477 1110.91C878.273 1132.12 847.104 1135.36 825.858 1118.14C804.612 1100.92 801.335 1069.76 818.539 1048.55C835.742 1027.33 866.911 1024.1 888.157 1041.32Z" fill="white" fill-opacity="0.25"/>
<path d="M641.268 1152.28C662.514 1169.5 665.791 1200.66 648.588 1221.87C631.384 1243.08 600.215 1246.32 578.969 1229.1C557.724 1211.88 554.446 1180.72 571.65 1159.51C588.853 1138.3 620.022 1135.06 641.268 1152.28Z" fill="white" fill-opacity="0.25"/>
<path d="M394.379 1263.24C415.625 1280.46 418.902 1311.62 401.699 1332.83C384.495 1354.04 353.326 1357.28 332.08 1340.06C310.835 1322.84 307.558 1291.68 324.761 1270.47C341.964 1249.26 373.133 1246.02 394.379 1263.24Z" fill="white" fill-opacity="0.25"/>
<defs>
<radialGradient id="paint0_angular_563_69" cx="0" cy="0" r="1" gradientUnits="userSpaceOnUse" gradientTransform="translate(900.613 675.992) rotate(33.4571) scale(482.774 762.445)">
<stop stop-color="white"/>
<stop offset="0.48" stop-color="white"/>
<stop offset="1" stop-color="white"/>
</radialGradient>
<radialGradient id="paint1_angular_563_69" cx="0" cy="0" r="1" gradientUnits="userSpaceOnUse" gradientTransform="translate(900.613 675.992) rotate(33.4571) scale(482.774 762.445)">
<stop stop-color="white"/>
<stop offset="0.48" stop-color="white"/>
<stop offset="1" stop-color="white"/>
</radialGradient>
<radialGradient id="paint2_angular_563_69" cx="0" cy="0" r="1" gradientUnits="userSpaceOnUse" gradientTransform="translate(900.613 675.992) rotate(33.4571) scale(482.774 762.445)">
<stop stop-color="white"/>
<stop offset="0.48" stop-color="white"/>
<stop offset="1" stop-color="white"/>
</radialGradient>
<radialGradient id="paint3_angular_563_69" cx="0" cy="0" r="1" gradientUnits="userSpaceOnUse" gradientTransform="translate(900.613 675.992) rotate(33.4571) scale(482.774 762.445)">
<stop stop-color="white"/>
<stop offset="0.48" stop-color="white"/>
<stop offset="1" stop-color="white"/>
</radialGradient>
<radialGradient id="paint4_angular_563_69" cx="0" cy="0" r="1" gradientUnits="userSpaceOnUse" gradientTransform="translate(900.613 675.992) rotate(33.4571) scale(482.774 762.445)">
<stop stop-color="white"/>
<stop offset="0.48" stop-color="white" stop-opacity="0.95"/>
<stop offset="1" stop-color="white" stop-opacity="0.3"/>
</radialGradient>
<radialGradient id="paint5_angular_563_69" cx="0" cy="0" r="1" gradientUnits="userSpaceOnUse" gradientTransform="translate(900.613 675.992) rotate(33.4571) scale(482.774 762.445)">
<stop stop-color="white"/>
<stop offset="0.48" stop-color="white"/>
<stop offset="1" stop-color="white"/>
</radialGradient>
<radialGradient id="paint6_angular_563_69" cx="0" cy="0" r="1" gradientUnits="userSpaceOnUse" gradientTransform="translate(900.613 675.992) rotate(33.4571) scale(482.774 762.445)">
<stop stop-color="white"/>
<stop offset="0.48" stop-color="white"/>
<stop offset="1" stop-color="white"/>
</radialGradient>
<radialGradient id="paint7_angular_563_69" cx="0" cy="0" r="1" gradientUnits="userSpaceOnUse" gradientTransform="translate(900.613 675.992) rotate(33.4571) scale(482.774 762.445)">
<stop stop-color="white"/>
<stop offset="0.48" stop-color="white"/>
<stop offset="1" stop-color="white"/>
</radialGradient>
<radialGradient id="paint8_angular_563_69" cx="0" cy="0" r="1" gradientUnits="userSpaceOnUse" gradientTransform="translate(900.613 675.992) rotate(33.4571) scale(482.774 762.445)">
<stop stop-color="white"/>
<stop offset="0.48" stop-color="white"/>
<stop offset="1" stop-color="white"/>
</radialGradient>
<radialGradient id="paint9_angular_563_69" cx="0" cy="0" r="1" gradientUnits="userSpaceOnUse" gradientTransform="translate(900.613 675.992) rotate(33.4571) scale(482.774 762.445)">
<stop stop-color="white"/>
<stop offset="0.48" stop-color="white"/>
<stop offset="1" stop-color="white"/>
</radialGradient>
<radialGradient id="paint10_angular_563_69" cx="0" cy="0" r="1" gradientUnits="userSpaceOnUse" gradientTransform="translate(900.613 675.992) rotate(33.4571) scale(482.774 762.445)">
<stop stop-color="white"/>
<stop offset="0.48" stop-color="white" stop-opacity="0.95"/>
<stop offset="1" stop-color="white" stop-opacity="0.3"/>
</radialGradient>
<radialGradient id="paint11_angular_563_69" cx="0" cy="0" r="1" gradientUnits="userSpaceOnUse" gradientTransform="translate(900.613 675.992) rotate(33.4571) scale(482.774 762.445)">
<stop stop-color="white"/>
<stop offset="0.48" stop-color="white"/>
<stop offset="1" stop-color="white"/>
</radialGradient>
<radialGradient id="paint12_angular_563_69" cx="0" cy="0" r="1" gradientUnits="userSpaceOnUse" gradientTransform="translate(900.613 675.992) rotate(33.4571) scale(482.774 762.445)">
<stop stop-color="white"/>
<stop offset="0.48" stop-color="white" stop-opacity="0.95"/>
<stop offset="1" stop-color="white" stop-opacity="0.3"/>
</radialGradient>
<radialGradient id="paint13_angular_563_69" cx="0" cy="0" r="1" gradientUnits="userSpaceOnUse" gradientTransform="translate(900.613 675.992) rotate(33.4571) scale(482.774 762.445)">
<stop stop-color="white"/>
<stop offset="0.48" stop-color="white" stop-opacity="0.95"/>
<stop offset="1" stop-color="white" stop-opacity="0.3"/>
</radialGradient>
<radialGradient id="paint14_angular_563_69" cx="0" cy="0" r="1" gradientUnits="userSpaceOnUse" gradientTransform="translate(900.613 675.992) rotate(33.4571) scale(482.774 762.445)">
<stop stop-color="white"/>
<stop offset="0.48" stop-color="white" stop-opacity="0.95"/>
<stop offset="1" stop-color="white" stop-opacity="0.3"/>
</radialGradient>
<radialGradient id="paint15_angular_563_69" cx="0" cy="0" r="1" gradientUnits="userSpaceOnUse" gradientTransform="translate(900.613 675.992) rotate(33.4571) scale(482.774 762.445)">
<stop stop-color="white"/>
<stop offset="0.48" stop-color="white" stop-opacity="0.95"/>
<stop offset="1" stop-color="white" stop-opacity="0.3"/>
</radialGradient>
<radialGradient id="paint16_angular_563_69" cx="0" cy="0" r="1" gradientUnits="userSpaceOnUse" gradientTransform="translate(900.613 675.992) rotate(33.4571) scale(482.774 762.445)">
<stop stop-color="white"/>
<stop offset="0.48" stop-color="white" stop-opacity="0.95"/>
<stop offset="1" stop-color="white" stop-opacity="0.3"/>
</radialGradient>
<radialGradient id="paint17_angular_563_69" cx="0" cy="0" r="1" gradientUnits="userSpaceOnUse" gradientTransform="translate(900.613 675.992) rotate(33.4571) scale(482.774 762.445)">
<stop stop-color="white"/>
<stop offset="0.48" stop-color="white" stop-opacity="0.95"/>
<stop offset="1" stop-color="white" stop-opacity="0.3"/>
</radialGradient>
<radialGradient id="paint18_angular_563_69" cx="0" cy="0" r="1" gradientUnits="userSpaceOnUse" gradientTransform="translate(900.613 675.992) rotate(33.4571) scale(482.774 762.445)">
<stop stop-color="white"/>
<stop offset="0.48" stop-color="white"/>
<stop offset="1" stop-color="white"/>
</radialGradient>
<radialGradient id="paint19_angular_563_69" cx="0" cy="0" r="1" gradientUnits="userSpaceOnUse" gradientTransform="translate(900.613 675.992) rotate(33.4571) scale(482.774 762.445)">
<stop stop-color="white"/>
<stop offset="0.48" stop-color="white"/>
<stop offset="1" stop-color="white"/>
</radialGradient>
<radialGradient id="paint20_angular_563_69" cx="0" cy="0" r="1" gradientUnits="userSpaceOnUse" gradientTransform="translate(900.613 675.992) rotate(33.4571) scale(482.774 762.445)">
<stop stop-color="white"/>
<stop offset="0.48" stop-color="white"/>
<stop offset="1" stop-color="white"/>
</radialGradient>
<radialGradient id="paint21_angular_563_69" cx="0" cy="0" r="1" gradientUnits="userSpaceOnUse" gradientTransform="translate(900.613 675.992) rotate(33.4571) scale(482.774 762.445)">
<stop stop-color="white"/>
<stop offset="0.48" stop-color="white"/>
<stop offset="1" stop-color="white"/>
</radialGradient>
<radialGradient id="paint22_angular_563_69" cx="0" cy="0" r="1" gradientUnits="userSpaceOnUse" gradientTransform="translate(900.613 675.992) rotate(33.4571) scale(482.774 762.445)">
<stop stop-color="white"/>
<stop offset="0.48" stop-color="white"/>
<stop offset="1" stop-color="white"/>
</radialGradient>
<radialGradient id="paint23_angular_563_69" cx="0" cy="0" r="1" gradientUnits="userSpaceOnUse" gradientTransform="translate(900.613 675.992) rotate(33.4571) scale(482.774 762.445)">
<stop stop-color="white"/>
<stop offset="0.48" stop-color="white"/>
<stop offset="1" stop-color="white"/>
</radialGradient>
<radialGradient id="paint24_angular_563_69" cx="0" cy="0" r="1" gradientUnits="userSpaceOnUse" gradientTransform="translate(900.613 675.992) rotate(33.4571) scale(482.774 762.445)">
<stop stop-color="white"/>
<stop offset="0.48" stop-color="white" stop-opacity="0.95"/>
<stop offset="1" stop-color="white" stop-opacity="0.3"/>
</radialGradient>
<radialGradient id="paint25_angular_563_69" cx="0" cy="0" r="1" gradientUnits="userSpaceOnUse" gradientTransform="translate(900.613 675.992) rotate(33.4571) scale(482.774 762.445)">
<stop stop-color="white"/>
<stop offset="0.48" stop-color="white" stop-opacity="0.95"/>
<stop offset="1" stop-color="white" stop-opacity="0.3"/>
</radialGradient>
<radialGradient id="paint26_angular_563_69" cx="0" cy="0" r="1" gradientUnits="userSpaceOnUse" gradientTransform="translate(900.613 675.992) rotate(33.4571) scale(482.774 762.445)">
<stop stop-color="white"/>
<stop offset="0.48" stop-color="white" stop-opacity="0.95"/>
<stop offset="1" stop-color="white" stop-opacity="0.3"/>
</radialGradient>
<radialGradient id="paint27_angular_563_69" cx="0" cy="0" r="1" gradientUnits="userSpaceOnUse" gradientTransform="translate(900.613 675.992) rotate(33.4571) scale(482.774 762.445)">
<stop stop-color="white"/>
<stop offset="0.48" stop-color="white" stop-opacity="0.95"/>
<stop offset="1" stop-color="white" stop-opacity="0.3"/>
</radialGradient>
<radialGradient id="paint28_angular_563_69" cx="0" cy="0" r="1" gradientUnits="userSpaceOnUse" gradientTransform="translate(900.613 675.992) rotate(33.4571) scale(482.774 762.445)">
<stop stop-color="white"/>
<stop offset="0.48" stop-color="white" stop-opacity="0.95"/>
<stop offset="1" stop-color="white" stop-opacity="0.3"/>
</radialGradient>
<radialGradient id="paint29_angular_563_69" cx="0" cy="0" r="1" gradientUnits="userSpaceOnUse" gradientTransform="translate(900.613 675.992) rotate(33.4571) scale(482.774 762.445)">
<stop stop-color="white"/>
<stop offset="0.48" stop-color="white" stop-opacity="0.95"/>
<stop offset="1" stop-color="white" stop-opacity="0.3"/>
</radialGradient>
<radialGradient id="paint30_angular_563_69" cx="0" cy="0" r="1" gradientUnits="userSpaceOnUse" gradientTransform="translate(900.613 675.992) rotate(33.4571) scale(482.774 762.445)">
<stop stop-color="white"/>
<stop offset="0.48" stop-color="white" stop-opacity="0.95"/>
<stop offset="1" stop-color="white" stop-opacity="0.3"/>
</radialGradient>
<radialGradient id="paint31_angular_563_69" cx="0" cy="0" r="1" gradientUnits="userSpaceOnUse" gradientTransform="translate(900.613 675.992) rotate(33.4571) scale(482.774 762.445)">
<stop stop-color="white"/>
<stop offset="0.48" stop-color="white" stop-opacity="0.95"/>
<stop offset="1" stop-color="white" stop-opacity="0.3"/>
</radialGradient>
<radialGradient id="paint32_angular_563_69" cx="0" cy="0" r="1" gradientUnits="userSpaceOnUse" gradientTransform="translate(900.613 675.992) rotate(33.4571) scale(482.774 762.445)">
<stop stop-color="white"/>
<stop offset="0.48" stop-color="white" stop-opacity="0.95"/>
<stop offset="1" stop-color="white" stop-opacity="0.3"/>
</radialGradient>
<radialGradient id="paint33_angular_563_69" cx="0" cy="0" r="1" gradientUnits="userSpaceOnUse" gradientTransform="translate(900.613 675.992) rotate(33.4571) scale(482.774 762.445)">
<stop stop-color="white"/>
<stop offset="0.48" stop-color="white" stop-opacity="0.95"/>
<stop offset="1" stop-color="white" stop-opacity="0.3"/>
</radialGradient>
<radialGradient id="paint34_angular_563_69" cx="0" cy="0" r="1" gradientUnits="userSpaceOnUse" gradientTransform="translate(900.613 675.992) rotate(33.4571) scale(482.774 762.445)">
<stop stop-color="white"/>
<stop offset="0.48" stop-color="white" stop-opacity="0.95"/>
<stop offset="1" stop-color="white" stop-opacity="0.3"/>
</radialGradient>
<radialGradient id="paint35_angular_563_69" cx="0" cy="0" r="1" gradientUnits="userSpaceOnUse" gradientTransform="translate(900.613 675.992) rotate(33.4571) scale(482.774 762.445)">
<stop stop-color="white"/>
<stop offset="0.48" stop-color="white" stop-opacity="0.95"/>
<stop offset="1" stop-color="white" stop-opacity="0.3"/>
</radialGradient>
</defs>
</svg>
