<svg width="142" height="193" viewBox="0 0 142 193" fill="none" xmlns="http://www.w3.org/2000/svg">
<mask id="path-1-inside-1_563_41" fill="white">
<path d="M-142 142C-142 63.5756 -78.4244 1.12475e-05 9.56928e-06 1.81035e-05C78.4245 2.49596e-05 142 63.5756 142 142C142 220.424 78.4244 284 -1.52588e-05 284C-78.4245 284 -142 220.424 -142 142ZM71.7734 142C71.7734 102.361 39.6394 70.2266 3.42987e-06 70.2266C-39.6393 70.2266 -71.7734 102.361 -71.7734 142C-71.7734 181.639 -39.6394 213.773 -9.11938e-06 213.773C39.6393 213.773 71.7734 181.639 71.7734 142Z"/>
</mask>
<path d="M-142 142C-142 63.5756 -78.4244 1.12475e-05 9.56928e-06 1.81035e-05C78.4245 2.49596e-05 142 63.5756 142 142C142 220.424 78.4244 284 -1.52588e-05 284C-78.4245 284 -142 220.424 -142 142ZM71.7734 142C71.7734 102.361 39.6394 70.2266 3.42987e-06 70.2266C-39.6393 70.2266 -71.7734 102.361 -71.7734 142C-71.7734 181.639 -39.6394 213.773 -9.11938e-06 213.773C39.6393 213.773 71.7734 181.639 71.7734 142Z" stroke="#0A87B0" stroke-width="52" mask="url(#path-1-inside-1_563_41)"/>
</svg>
