<svg width="96" height="96" viewBox="0 0 96 96" fill="none" xmlns="http://www.w3.org/2000/svg">
<mask id="path-1-inside-1_563_67" fill="white">
<path d="M48 96C57.4935 96 66.7738 93.1849 74.6674 87.9105C82.5609 82.6362 88.7132 75.1397 92.3462 66.3688C95.9792 57.598 96.9298 47.9468 95.0777 38.6357C93.2256 29.3246 88.654 20.7718 81.9411 14.0589C75.2282 7.34595 66.6754 2.7744 57.3643 0.922307C48.0532 -0.929784 38.4021 0.0207768 29.6312 3.65378C20.8603 7.28679 13.3638 13.4391 8.08946 21.3326C2.81516 29.2262 8.08858e-06 38.5065 8.20179e-06 48L23.7386 48C23.7386 43.2015 25.1615 38.5108 27.8274 34.5211C30.4932 30.5313 34.2824 27.4217 38.7156 25.5854C43.1488 23.7491 48.0269 23.2686 52.7332 24.2048C57.4394 25.1409 61.7624 27.4516 65.1554 30.8446C68.5484 34.2376 70.8591 38.5606 71.7953 43.2668C72.7314 47.9731 72.2509 52.8513 70.4146 57.2845C68.5783 61.7176 65.4687 65.5068 61.4789 68.1726C57.4892 70.8385 52.7985 72.2614 48 72.2614L48 96Z"/>
</mask>
<path d="M48 96C57.4935 96 66.7738 93.1849 74.6674 87.9105C82.5609 82.6362 88.7132 75.1397 92.3462 66.3688C95.9792 57.598 96.9298 47.9468 95.0777 38.6357C93.2256 29.3246 88.654 20.7718 81.9411 14.0589C75.2282 7.34595 66.6754 2.7744 57.3643 0.922307C48.0532 -0.929784 38.4021 0.0207768 29.6312 3.65378C20.8603 7.28679 13.3638 13.4391 8.08946 21.3326C2.81516 29.2262 8.08858e-06 38.5065 8.20179e-06 48L23.7386 48C23.7386 43.2015 25.1615 38.5108 27.8274 34.5211C30.4932 30.5313 34.2824 27.4217 38.7156 25.5854C43.1488 23.7491 48.0269 23.2686 52.7332 24.2048C57.4394 25.1409 61.7624 27.4516 65.1554 30.8446C68.5484 34.2376 70.8591 38.5606 71.7953 43.2668C72.7314 47.9731 72.2509 52.8513 70.4146 57.2845C68.5783 61.7176 65.4687 65.5068 61.4789 68.1726C57.4892 70.8385 52.7985 72.2614 48 72.2614L48 96Z" stroke="#0A87B0" stroke-width="18" mask="url(#path-1-inside-1_563_67)"/>
</svg>
