<svg width="147" height="170" viewBox="0 0 147 170" fill="none" xmlns="http://www.w3.org/2000/svg">
<mask id="path-1-inside-1_563_17" fill="white">
<path d="M250 45C250 69.7227 242.669 93.8901 228.934 114.446C215.199 135.002 195.676 151.024 172.835 160.485C149.995 169.946 124.861 172.421 100.614 167.598C76.3661 162.775 54.0932 150.87 36.6117 133.388C19.1301 115.907 7.22499 93.6339 2.40184 69.3863C-2.42131 45.1387 0.0541045 20.0053 9.51506 -2.83543C18.976 -25.6762 34.9976 -45.1985 55.5537 -58.9337C76.1099 -72.6689 100.277 -80 125 -80L125 -18.1808C112.504 -18.1808 100.289 -14.4753 89.8986 -7.53291C79.5086 -0.590515 71.4106 9.27697 66.6286 20.8218C61.8465 32.3665 60.5954 45.0701 63.0332 57.326C65.471 69.5818 71.4884 80.8396 80.3244 89.6756C89.1604 98.5116 100.418 104.529 112.674 106.967C124.93 109.405 137.633 108.153 149.178 103.371C160.723 98.5894 170.591 90.4914 177.533 80.1014C184.475 69.7113 188.181 57.496 188.181 45L250 45Z"/>
</mask>
<path d="M250 45C250 69.7227 242.669 93.8901 228.934 114.446C215.199 135.002 195.676 151.024 172.835 160.485C149.995 169.946 124.861 172.421 100.614 167.598C76.3661 162.775 54.0932 150.87 36.6117 133.388C19.1301 115.907 7.22499 93.6339 2.40184 69.3863C-2.42131 45.1387 0.0541045 20.0053 9.51506 -2.83543C18.976 -25.6762 34.9976 -45.1985 55.5537 -58.9337C76.1099 -72.6689 100.277 -80 125 -80L125 -18.1808C112.504 -18.1808 100.289 -14.4753 89.8986 -7.53291C79.5086 -0.590515 71.4106 9.27697 66.6286 20.8218C61.8465 32.3665 60.5954 45.0701 63.0332 57.326C65.471 69.5818 71.4884 80.8396 80.3244 89.6756C89.1604 98.5116 100.418 104.529 112.674 106.967C124.93 109.405 137.633 108.153 149.178 103.371C160.723 98.5894 170.591 90.4914 177.533 80.1014C184.475 69.7113 188.181 57.496 188.181 45L250 45Z" stroke="#FF5309" stroke-width="48" mask="url(#path-1-inside-1_563_17)"/>
</svg>
