<svg width="184" height="184" viewBox="0 0 184 184" fill="none" xmlns="http://www.w3.org/2000/svg">
<mask id="path-1-inside-1_563_16" fill="white">
<path d="M92 184C73.8041 184 56.0169 178.604 40.8875 168.495C25.7582 158.386 13.9663 144.018 7.00309 127.207C0.0398359 110.396 -1.78208 91.8979 1.76777 74.0517C5.31761 56.2054 14.0798 39.8126 26.9462 26.9462C39.8126 14.0797 56.2055 5.31759 74.0517 1.76775C91.8979 -1.78209 110.396 0.0398177 127.207 7.00308C144.018 13.9663 158.386 25.7582 168.495 40.8875C178.604 56.0169 184 73.8041 184 92L138.501 92C138.501 82.803 135.774 73.8125 130.664 66.1654C125.555 58.5183 118.292 52.5582 109.795 49.0386C101.298 45.5191 91.9484 44.5982 82.9281 46.3924C73.9078 48.1867 65.6221 52.6155 59.1188 59.1188C52.6155 65.6221 48.1867 73.9078 46.3924 82.9281C44.5982 91.9484 45.5191 101.298 49.0386 109.795C52.5582 118.292 58.5183 125.555 66.1654 130.664C73.8125 135.774 82.803 138.501 92 138.501L92 184Z"/>
</mask>
<path d="M92 184C73.8041 184 56.0169 178.604 40.8875 168.495C25.7582 158.386 13.9663 144.018 7.00309 127.207C0.0398359 110.396 -1.78208 91.8979 1.76777 74.0517C5.31761 56.2054 14.0798 39.8126 26.9462 26.9462C39.8126 14.0797 56.2055 5.31759 74.0517 1.76775C91.8979 -1.78209 110.396 0.0398177 127.207 7.00308C144.018 13.9663 158.386 25.7582 168.495 40.8875C178.604 56.0169 184 73.8041 184 92L138.501 92C138.501 82.803 135.774 73.8125 130.664 66.1654C125.555 58.5183 118.292 52.5582 109.795 49.0386C101.298 45.5191 91.9484 44.5982 82.9281 46.3924C73.9078 48.1867 65.6221 52.6155 59.1188 59.1188C52.6155 65.6221 48.1867 73.9078 46.3924 82.9281C44.5982 91.9484 45.5191 101.298 49.0386 109.795C52.5582 118.292 58.5183 125.555 66.1654 130.664C73.8125 135.774 82.803 138.501 92 138.501L92 184Z" stroke="#FF5309" stroke-width="38" mask="url(#path-1-inside-1_563_16)"/>
</svg>
