<svg width="187" height="223" viewBox="0 0 187 223" fill="none" xmlns="http://www.w3.org/2000/svg">
<mask id="path-1-inside-1_563_28" fill="white">
<path d="M-5.51115e-06 111.5C-3.58325e-06 89.4474 6.53937 67.89 18.7911 49.5539C31.0429 31.2178 48.4568 16.9266 68.8308 8.48743C89.2048 0.0482671 111.624 -2.1598 133.253 2.14245C154.881 6.4447 174.749 17.0641 190.342 32.6576C205.936 48.2512 216.555 68.1186 220.858 89.7474C225.16 111.376 222.952 133.795 214.513 154.169C206.073 174.543 191.782 191.957 173.446 204.209C155.11 216.461 133.553 223 111.5 223L111.5 167.857C122.646 167.857 133.543 164.552 142.81 158.359C152.078 152.167 159.302 143.365 163.567 133.067C167.833 122.769 168.949 111.437 166.774 100.505C164.6 89.573 159.232 79.5311 151.351 71.6494C143.469 63.7677 133.427 58.4002 122.495 56.2256C111.563 54.0511 100.231 55.1671 89.933 59.4327C79.6351 63.6982 70.8333 70.9217 64.6406 80.1896C58.448 89.4575 55.1427 100.354 55.1427 111.5L-5.51115e-06 111.5Z"/>
</mask>
<path d="M-5.51115e-06 111.5C-3.58325e-06 89.4474 6.53937 67.89 18.7911 49.5539C31.0429 31.2178 48.4568 16.9266 68.8308 8.48743C89.2048 0.0482671 111.624 -2.1598 133.253 2.14245C154.881 6.4447 174.749 17.0641 190.342 32.6576C205.936 48.2512 216.555 68.1186 220.858 89.7474C225.16 111.376 222.952 133.795 214.513 154.169C206.073 174.543 191.782 191.957 173.446 204.209C155.11 216.461 133.553 223 111.5 223L111.5 167.857C122.646 167.857 133.543 164.552 142.81 158.359C152.078 152.167 159.302 143.365 163.567 133.067C167.833 122.769 168.949 111.437 166.774 100.505C164.6 89.573 159.232 79.5311 151.351 71.6494C143.469 63.7677 133.427 58.4002 122.495 56.2256C111.563 54.0511 100.231 55.1671 89.933 59.4327C79.6351 63.6982 70.8333 70.9217 64.6406 80.1896C58.448 89.4575 55.1427 100.354 55.1427 111.5L-5.51115e-06 111.5Z" stroke="#FF5309" stroke-width="38" mask="url(#path-1-inside-1_563_28)"/>
</svg>
