<svg width="317" height="312" viewBox="0 0 317 312" fill="none" xmlns="http://www.w3.org/2000/svg">
<g filter="url(#filter0_d_563_18)">
<mask id="path-1-inside-1_563_18" fill="white">
<path d="M9.8336 194.379C1.94752 164.948 2.96592 133.839 12.76 104.987C22.5541 76.1344 40.684 50.8342 64.857 32.2855C89.0301 13.7369 118.161 2.77295 148.565 0.780159C178.969 -1.21263 209.281 5.85523 235.669 21.09C262.056 36.3247 283.333 59.042 296.81 86.3693C310.286 113.696 315.356 144.406 311.379 174.615C307.402 204.824 294.556 233.175 274.466 256.083C254.376 278.991 227.945 295.428 198.513 303.314L178.794 229.721C193.67 225.735 207.03 217.427 217.184 205.848C227.339 194.269 233.831 179.939 235.842 164.67C237.852 149.401 235.289 133.879 228.478 120.067C221.666 106.254 210.912 94.772 197.574 87.0717C184.237 79.3713 168.916 75.7989 153.548 76.8062C138.18 77.8134 123.456 83.3551 111.238 92.7304C99.0198 102.106 89.8562 114.894 84.9058 129.477C79.9554 144.06 79.4406 159.784 83.4266 174.66L9.8336 194.379Z"/>
</mask>
<path d="M9.8336 194.379C1.94752 164.948 2.96592 133.839 12.76 104.987C22.5541 76.1344 40.684 50.8342 64.857 32.2855C89.0301 13.7369 118.161 2.77295 148.565 0.780159C178.969 -1.21263 209.281 5.85523 235.669 21.09C262.056 36.3247 283.333 59.042 296.81 86.3693C310.286 113.696 315.356 144.406 311.379 174.615C307.402 204.824 294.556 233.175 274.466 256.083C254.376 278.991 227.945 295.428 198.513 303.314L178.794 229.721C193.67 225.735 207.03 217.427 217.184 205.848C227.339 194.269 233.831 179.939 235.842 164.67C237.852 149.401 235.289 133.879 228.478 120.067C221.666 106.254 210.912 94.772 197.574 87.0717C184.237 79.3713 168.916 75.7989 153.548 76.8062C138.18 77.8134 123.456 83.3551 111.238 92.7304C99.0198 102.106 89.8562 114.894 84.9058 129.477C79.9554 144.06 79.4406 159.784 83.4266 174.66L9.8336 194.379Z" stroke="#FF5309" stroke-width="60" shape-rendering="crispEdges" mask="url(#path-1-inside-1_563_18)"/>
</g>
<defs>
<filter id="filter0_d_563_18" x="0.584229" y="0.450195" width="316.113" height="310.863" filterUnits="userSpaceOnUse" color-interpolation-filters="sRGB">
<feFlood flood-opacity="0" result="BackgroundImageFix"/>
<feColorMatrix in="SourceAlpha" type="matrix" values="0 0 0 0 0 0 0 0 0 0 0 0 0 0 0 0 0 0 127 0" result="hardAlpha"/>
<feOffset dy="4"/>
<feGaussianBlur stdDeviation="2"/>
<feComposite in2="hardAlpha" operator="out"/>
<feColorMatrix type="matrix" values="0 0 0 0 0 0 0 0 0 0 0 0 0 0 0 0 0 0 0.25 0"/>
<feBlend mode="normal" in2="BackgroundImageFix" result="effect1_dropShadow_563_18"/>
<feBlend mode="normal" in="SourceGraphic" in2="effect1_dropShadow_563_18" result="shape"/>
</filter>
</defs>
</svg>
