<svg width="103" height="103" viewBox="0 0 103 103" fill="none" xmlns="http://www.w3.org/2000/svg">
<rect x="4" y="4" width="95" height="95" rx="6" stroke="#FF5309" stroke-width="8"/>
<path d="M36.4933 26.2165C36.2819 26.4403 36.0207 26.8009 35.9212 26.9999C35.7098 27.4227 35.4736 28.5791 35.4238 29.4247L35.399 29.9843L32.228 30.0465C28.7834 30.1087 28.6715 30.1336 28.2487 30.8299C28.0249 31.1905 28 31.4641 28 33.4289C28 36.4755 28.2984 37.8434 29.3803 39.8579C31.1212 43.0911 34.5036 45.3418 38.1347 45.6652L39.0798 45.7522L39.2912 46.262C40.087 48.2766 41.7782 51.2486 43.1959 53.176C45.6829 56.5211 49.8736 59.5677 52 59.5677C54.1513 59.5677 58.342 56.5087 60.8788 53.0641C62.2715 51.1864 63.913 48.2641 64.7088 46.262L64.9202 45.7522L65.8653 45.6652C69.4964 45.3418 72.8788 43.0911 74.6197 39.8579C75.7016 37.8558 76 36.4755 76 33.4538C76 31.0289 75.9254 30.718 75.2166 30.2952C74.8435 30.0714 74.57 30.0465 71.685 30.0465H68.5389V29.3626C68.5389 28.0071 68.1907 26.9377 67.5067 26.2165L67.1212 25.8185H52H36.8788L36.4933 26.2165ZM53.0446 33.7646L54.0269 35.7294L55.5316 35.9408C56.3648 36.0527 57.3969 36.2144 57.8197 36.289L58.6155 36.4133L56.9617 37.9926L55.3078 39.5719L55.6933 41.8102C55.9047 43.0289 56.0539 44.0486 56.0415 44.0734C56.0166 44.0983 55.0964 43.6507 54.0021 43.0786L52 42.0465L49.9979 43.0786C48.9036 43.6507 47.9834 44.0983 47.9585 44.0734C47.9461 44.061 48.0953 43.0289 48.3067 41.8102L48.6922 39.5719L47.0383 37.9926L45.3845 36.4258L45.8073 36.3512C46.0311 36.3139 47.0632 36.1522 48.0953 36.003L49.9731 35.7294L50.9554 33.7646C51.4902 32.6703 51.9627 31.7874 52 31.7874C52.0373 31.7874 52.5098 32.6703 53.0446 33.7646ZM35.6352 33.4289C35.6601 33.5159 35.8466 34.4983 36.058 35.5926C36.2694 36.6994 36.7544 38.6393 37.115 39.9201C37.5503 41.4123 37.7368 42.233 37.6373 42.233C37.5503 42.233 37.1896 42.1336 36.8166 41.9968C34.6404 41.2507 32.9865 39.7584 32.0415 37.6942C31.5316 36.575 31.3699 35.9035 31.2705 34.4486L31.1959 33.2797H33.3969C35.0508 33.2797 35.5979 33.317 35.6352 33.4289ZM72.7171 34.4859C72.6176 35.9781 72.4684 36.575 71.9461 37.7439C70.9513 39.9076 68.713 41.7605 66.5368 42.1957L66.201 42.2579L66.8601 39.9823C67.2332 38.7263 67.7057 36.774 67.9295 35.6424C68.1534 34.5108 68.3399 33.5159 68.3648 33.4289C68.4021 33.317 68.9492 33.2797 70.6031 33.2797H72.8041L72.7171 34.4859Z" fill="#FF5309"/>
<path d="M49.103 60.9107C48.6304 62.863 47.3123 64.8899 45.7082 66.1086L44.875 66.7303H52.0004H59.1258L58.2926 66.1086C56.6885 64.8899 55.3703 62.863 54.8978 60.9107C54.7859 60.4257 54.6491 60.0153 54.5869 60.0153C54.5372 60.0153 54.2014 60.1397 53.8408 60.2765C52.56 60.7863 52.0626 60.8734 51.4159 60.6993C51.0802 60.6122 50.5206 60.4257 50.16 60.2765C49.7994 60.1397 49.4636 60.0153 49.4139 60.0153C49.3517 60.0153 49.2149 60.4257 49.103 60.9107Z" fill="#FF5309"/>
<path d="M35.8596 68.2973C35.1507 68.6455 34.6658 69.1554 34.33 69.9015C34.1311 70.3367 34.0938 70.7471 34.0938 72.973V75.5595H52.0005H69.9072V72.973C69.9072 70.7471 69.8699 70.3367 69.671 69.9015C69.3352 69.1554 68.8502 68.6455 68.1414 68.2973L67.4948 67.974H52.0005H36.5062L35.8596 68.2973Z" fill="#FF5309"/>
</svg>
