<svg width="103" height="103" viewBox="0 0 103 103" fill="none" xmlns="http://www.w3.org/2000/svg">
<rect x="4" y="4" width="95" height="95" rx="6" stroke="#FF5309" stroke-width="8"/>
<path d="M50.8417 15.2246C49.9863 15.5383 49.0311 16.4507 48.5606 17.3916L48.1614 18.2043L48.1187 26.2878L48.0759 34.3713L47.3345 34.5851C46.9211 34.6992 44.2551 35.412 41.3895 36.1676C37.9252 37.0943 35.915 37.6931 35.3732 37.9782C33.7765 38.8193 32.4649 40.6727 32.1227 42.5546C32.0229 43.0678 31.9802 45.3774 32.0087 48.7562L32.0514 54.131L32.4221 54.9293C32.636 55.3713 33.0209 55.9558 33.306 56.2267C33.748 56.6829 46.75 64.0393 47.0922 64.0393C47.1777 64.0393 47.2347 62.3428 47.2347 59.6198C47.2347 55.5424 47.2633 55.1289 47.5199 54.3305C48.0616 52.7481 49.1879 51.3794 50.5423 50.6951C51.0555 50.4385 66.5525 44.6788 71.5138 42.911L71.913 42.7684L71.8702 34.6849L71.8274 26.6157L71.4995 25.8886C70.9007 24.5627 70.4445 24.2491 62.4893 19.8295C58.3692 17.5485 54.691 15.524 54.2918 15.3387C53.4506 14.9395 51.8111 14.8825 50.8417 15.2246ZM47.9618 40.6727C47.8763 40.9578 47.6767 41.3 47.5199 41.4426C47.3631 41.5851 44.8111 43.1248 41.8457 44.8784L36.471 48.0434L36.4282 45.8051C36.3855 43.2817 36.5423 42.5973 37.2694 42.0698C37.5402 41.8845 39.6217 41.2572 42.858 40.3876L48.0189 39.0189L48.0616 39.5892C48.0901 39.9028 48.0474 40.3876 47.9618 40.6727Z" fill="#FF5309"/>
<path d="M61.9353 50.7948C56.6603 52.7337 52.2122 54.4445 52.0554 54.587C51.3854 55.1858 51.3711 55.3141 51.3711 60.7459V65.8783L51.9128 65.7928C52.198 65.75 52.6684 65.6217 52.9393 65.5361C53.2102 65.4363 57.0025 63.2551 61.3507 60.7031C66.9251 57.4099 69.4627 55.8416 69.9475 55.3712C70.7458 54.6013 71.5442 53.0616 71.7581 51.9353C71.9719 50.7805 71.9434 47.2164 71.7296 47.2306C71.6298 47.2449 67.2245 48.8416 61.9353 50.7948Z" fill="#FF5309"/>
<path d="M38.1686 68.9293C36.0444 69.9558 35.6737 72.9212 37.4843 74.4181C38.1829 75.0026 39.0526 75.2165 40.1503 75.1024L41.0485 75.0169L44.4558 76.5994C46.3377 77.469 47.9344 78.2246 47.9915 78.2816C48.0485 78.3387 46.4803 79.137 44.4986 80.0495L40.8917 81.7032L40.1646 81.5464C39.1096 81.3326 38.0546 81.6605 37.2705 82.4446C35.6737 84.0556 36.1442 86.7216 38.2114 87.7623C38.8387 88.0759 40.3071 88.0617 41.0342 87.7195C41.6615 87.4344 42.4741 86.5933 42.6167 86.0943C42.6737 85.8377 43.686 85.3244 47.9629 83.357C50.8713 82.0169 53.3234 80.9191 53.4375 80.8906C53.5515 80.8621 56.0607 81.9456 59.0118 83.3142C63.8306 85.524 64.3866 85.8234 64.5434 86.2083C64.7858 86.7643 65.4131 87.3774 66.1116 87.7338C66.9528 88.1615 68.5067 88.0617 69.3051 87.5199C70.2318 86.9212 70.6737 86.137 70.7308 85.0108C70.7878 83.9415 70.6025 83.3428 69.9752 82.6014C69.2338 81.7318 67.8652 81.2755 66.7959 81.5607C66.2542 81.7175 66.1401 81.6747 62.5902 80.0495C60.5943 79.1228 58.9691 78.3387 59.0118 78.3102C59.0403 78.2816 60.6371 77.526 62.5617 76.6421L66.0546 75.0311L67.1666 75.1024C68.1788 75.188 68.3214 75.1594 69.0485 74.7745C71.0302 73.7195 71.3723 71.025 69.7043 69.4853C68.0933 68.0026 65.5841 68.4731 64.5291 70.4405C64.2868 70.8825 63.8733 71.1106 60.1381 72.8356C57.8713 73.8764 55.9609 74.7317 55.9039 74.7317C55.8326 74.7317 55.7898 73.4059 55.7898 71.7949C55.7898 68.4588 55.9467 68.7297 54.4212 69.3713C53.9365 69.5709 53.0526 69.8132 52.468 69.8988L51.3703 70.0556L51.3418 72.4507L51.299 74.8315L46.9935 72.8356C44.6126 71.7379 42.6737 70.7827 42.6737 70.7256C42.6737 70.6544 42.5027 70.3265 42.2888 70.0128C41.4477 68.7297 39.5943 68.245 38.1686 68.9293Z" fill="#FF5309"/>
</svg>
