<svg width="103" height="103" viewBox="0 0 103 103" fill="none" xmlns="http://www.w3.org/2000/svg">
<rect x="4" y="4" width="95" height="95" rx="6" stroke="#FF5309" stroke-width="8"/>
<path d="M38.9531 26.6347C36.3219 27.0645 34.2044 27.8926 32.0869 29.3182C30.7766 30.2093 28.6905 32.3058 27.8519 33.5847C26.7093 35.3144 25.9126 37.1908 25.4828 39.1406C25.2102 40.3671 25.1473 43.3651 25.3675 44.7174C25.661 46.4995 26.5939 48.9839 27.5479 50.5458L27.7575 50.8812L33.6383 50.8603L39.5192 50.8288L40.5884 49.0468C41.2908 47.8622 41.773 47.1808 41.9931 47.0236C42.4124 46.7406 43.1357 46.7196 43.5865 46.9712C43.7961 47.1075 44.5823 48.2291 46.1547 50.6926C47.3917 52.6423 48.44 54.2357 48.4819 54.2357C48.5238 54.2357 50.0229 51.1643 51.8049 47.401C54.6667 41.3524 55.086 40.5348 55.4005 40.3251C55.8618 40.0211 56.5641 40.0002 57.0358 40.2937C57.3922 40.5138 57.3189 40.3775 61.1136 47.4219L62.9481 50.8288L69.6361 50.8603L76.3345 50.8812L76.7853 50.095C78.2214 47.6001 78.8923 45.0843 78.8923 42.233C78.8923 39.6962 78.473 37.8512 77.3828 35.6289C76.5337 33.9097 75.6637 32.6727 74.3323 31.3205C71.7955 28.7522 68.6821 27.1588 65.1809 26.6556C63.7657 26.4565 60.9459 26.5823 59.6565 26.9072C57.0882 27.5571 54.7296 28.7417 52.6121 30.4504C52.1194 30.8382 52.0356 30.8697 51.8573 30.7439C51.7525 30.66 51.2494 30.2931 50.7567 29.9158C48.5343 28.249 45.9765 27.1274 43.4083 26.7185C42.5382 26.5718 39.645 26.5194 38.9531 26.6347Z" fill="#FF5309"/>
<path d="M55.9444 45.6608C55.6614 46.2793 51.3949 55.3049 50.3362 57.5063C49.9693 58.2715 49.7701 58.565 49.4975 58.7328C49.0573 59.0158 48.3444 59.0263 47.9042 58.7537C47.684 58.6174 46.8873 57.4643 45.252 54.8751C43.9627 52.8519 42.8725 51.2166 42.8305 51.2481C42.7991 51.269 42.4636 51.7932 42.0862 52.4012C41.0589 54.1099 41.6669 53.9631 35.4716 54.026L30.2617 54.0784L40.7235 64.4773C47.5687 71.2806 51.2901 74.8971 51.4683 74.9496C52.0239 75.0858 52.7472 74.9391 53.177 74.5931C53.3971 74.4149 58.1248 69.7187 63.6912 64.1523L73.807 54.026H68.0415C64.8652 54.026 62.0873 53.9736 61.8672 53.9212C61.6366 53.8688 61.3326 53.743 61.1858 53.6381C61.0286 53.5124 60.0327 51.7617 58.6699 49.2249C57.4225 46.9082 56.3742 45.0109 56.3323 45.0109C56.2904 45.0109 56.1122 45.3044 55.9444 45.6608Z" fill="#FF5309"/>
</svg>
