<svg width="103" height="103" viewBox="0 0 103 103" fill="none" xmlns="http://www.w3.org/2000/svg">
<rect x="4" y="4" width="95" height="95" rx="6" stroke="#FF5309" stroke-width="8"/>
<path d="M29.9522 26.1871C28.6431 26.656 27.6369 27.6719 27.1778 29.0005C27.002 29.528 26.9922 30.1239 26.9922 51C26.9922 71.8761 27.002 72.472 27.1778 72.9995C27.6369 74.3476 28.6529 75.3636 29.9912 75.8227C30.5285 76.0083 30.9388 76.0083 45.9829 76.0083C58.9168 76.0083 61.4958 75.9888 61.8768 75.8715C63.4203 75.4026 64.573 74.2108 64.9833 72.6869C65.0615 72.3645 65.0908 70.7038 65.0712 66.4348L65.0419 60.6223L63.8697 61.7458C63.1272 62.4491 62.4727 62.9864 62.1113 63.172C61.7889 63.3381 60.3626 63.8656 58.9462 64.3345C56.4258 65.1746 56.3574 65.1844 55.615 65.1453C54.2473 65.0672 53.163 64.315 52.5573 63.0352C52.3033 62.4882 52.2545 62.2635 52.2447 61.6481C52.2447 60.9838 52.3229 60.6809 53.0653 58.4732C53.5147 57.1251 54.0324 55.7184 54.2278 55.3471C54.5404 54.7219 55.0581 54.1749 59.8351 49.3881L65.0908 44.1129V40.9185V37.7241L59.796 37.6948C54.6674 37.6655 54.4818 37.6557 54.1496 37.4701C53.964 37.3529 53.7296 37.1184 53.6124 36.9328C53.4267 36.6007 53.417 36.4151 53.3877 31.2864L53.3584 25.9917L41.9092 26.0015C31.0072 26.0015 30.4308 26.0112 29.9522 26.1871ZM55.4098 40.8892C55.9276 41.1921 56.1523 41.5633 56.1523 42.1103C56.1523 42.6574 55.9276 43.0286 55.4098 43.3314C55.0875 43.5268 54.9018 43.5268 44.5273 43.5268C34.1528 43.5268 33.9672 43.5268 33.6546 43.3314C32.5409 42.6574 32.7949 41.0455 34.0648 40.7329C34.2309 40.6938 39.0274 40.6743 44.7227 40.6743C54.8921 40.6938 55.0875 40.6938 55.4098 40.8892ZM49.5485 46.7505C50.0663 47.0534 50.2909 47.4246 50.2909 47.9717C50.2909 48.5187 50.0663 48.8899 49.5485 49.1928C49.2261 49.3881 49.0405 49.3881 41.5966 49.3881C34.1528 49.3881 33.9672 49.3881 33.6546 49.1928C32.5409 48.5187 32.7949 46.9068 34.0648 46.5942C34.2309 46.5552 37.7086 46.5259 41.792 46.5356C49.021 46.5552 49.2261 46.5649 49.5485 46.7505ZM49.5485 52.6119C50.0663 52.9147 50.2909 53.2859 50.2909 53.833C50.2909 54.38 50.0663 54.7512 49.5485 55.0541C49.2261 55.2495 49.0405 55.2495 41.5966 55.2495C34.1528 55.2495 33.9672 55.2495 33.6546 55.0541C32.5409 54.38 32.7949 52.7682 34.0648 52.4556C34.2309 52.4165 37.7086 52.3872 41.792 52.3969C49.021 52.4165 49.2261 52.4263 49.5485 52.6119ZM49.5485 58.4732C50.0663 58.776 50.2909 59.1472 50.2909 59.6943C50.2909 60.2413 50.0663 60.6126 49.5485 60.9154C49.2261 61.1108 49.0405 61.1108 41.5966 61.1108C34.1528 61.1108 33.9672 61.1108 33.6546 60.9154C32.5409 60.2413 32.7949 58.6295 34.0648 58.3169C34.2309 58.2778 37.7086 58.2485 41.792 58.2583C49.021 58.2778 49.2261 58.2876 49.5485 58.4732ZM55.4098 67.2652C55.9276 67.568 56.1523 67.9392 56.1523 68.4863C56.1523 69.0333 55.9276 69.4045 55.4098 69.7074C55.0875 69.893 54.9018 69.9028 50.3886 69.9028C45.8754 69.9028 45.6898 69.893 45.3674 69.7074C44.1952 69.0138 44.4296 67.441 45.7582 67.1186C45.9438 67.0698 48.1125 67.0405 50.584 67.0503C54.8823 67.0698 55.0875 67.0796 55.4098 67.2652Z" fill="#FF5309"/>
<path d="M56.1992 30.3877V34.7837H60.6538H65.1182L65.0498 34.1389C64.9717 33.3867 64.7079 32.6345 64.3074 32.0386C63.858 31.3548 59.2471 26.8416 58.7 26.5485C58.0553 26.1871 57.3422 25.9917 56.717 25.9917H56.1992V30.3877Z" fill="#FF5309"/>
<path d="M73.511 40.4593C72.7295 40.5863 72.456 40.7817 71.0493 42.1493L69.75 43.3997L71.8405 45.4903C72.9933 46.643 73.9799 47.5808 74.0385 47.5808C74.2241 47.5808 76.5003 45.1777 76.725 44.7283C77.018 44.1519 77.0962 42.9992 76.8715 42.3349C76.6761 41.7488 76.1584 41.1236 75.6113 40.8012C75.2499 40.5863 75.0447 40.5277 74.2241 40.4105C74.1167 40.3909 73.7943 40.4202 73.511 40.4593Z" fill="#FF5309"/>
<path d="M62.8434 50.2673L58.0078 55.1029L60.1081 57.2032C61.2608 58.3559 62.2475 59.3035 62.3061 59.3035C62.3647 59.3035 64.5823 57.125 67.2394 54.4679L72.075 49.6323L69.9747 47.532C68.8219 46.3793 67.8353 45.4317 67.7767 45.4317C67.7181 45.4317 65.5005 47.6101 62.8434 50.2673Z" fill="#FF5309"/>
<path d="M56.3461 57.5548C56.0726 58.2875 55.0273 61.5307 55.0273 61.6577C55.0273 61.9703 55.4083 62.3318 55.7405 62.3318C56.0824 62.3318 59.9118 61.0911 59.9118 60.9837C59.9118 60.9446 59.1205 60.124 58.1534 59.1569C56.9616 57.9651 56.3852 57.4571 56.3461 57.5548Z" fill="#FF5309"/>
</svg>
