<svg width="113" height="37" viewBox="0 0 113 37" fill="none" xmlns="http://www.w3.org/2000/svg">
<path d="M94.9854 8.84114H101.068V18.4744H94.9854V8.84114Z" fill="#081D71"/>
<path d="M106.917 18.4744H113V27.7372H106.917V18.4744Z" fill="#081D71"/>
<path d="M104.11 30.7013V37H94.9855V30.7013H104.11Z" fill="#081D71"/>
<path d="M106.917 8.84114H113V26.7492H106.917V8.84114Z" fill="#081D71"/>
<path d="M113 18.2892C113 19.5299 112.767 20.7585 112.314 21.9048C111.862 23.0511 111.198 24.0926 110.362 24.9699C109.525 25.8473 108.532 26.5432 107.44 27.018C106.347 27.4928 105.176 27.7372 103.993 27.7372C102.81 27.7372 101.639 27.4928 100.546 27.018C99.453 26.5432 98.4601 25.8473 97.6237 24.9699C96.7873 24.0926 96.1238 23.0511 95.6712 21.9048C95.2185 20.7585 94.9855 19.5299 94.9855 18.2892H101.076C101.076 18.691 101.151 19.0888 101.298 19.4601C101.444 19.8313 101.659 20.1686 101.93 20.4527C102.201 20.7368 102.523 20.9622 102.877 21.1159C103.23 21.2697 103.61 21.3489 103.993 21.3489C104.376 21.3489 104.755 21.2697 105.109 21.1159C105.463 20.9622 105.784 20.7368 106.055 20.4527C106.326 20.1686 106.541 19.8313 106.688 19.4601C106.834 19.0888 106.91 18.691 106.91 18.2892H113Z" fill="#081D71"/>
<path d="M113 27.552C113 28.7927 112.767 30.0213 112.314 31.1676C111.862 32.3139 111.198 33.3554 110.362 34.2327C109.525 35.1101 108.532 35.806 107.44 36.2808C106.347 36.7556 105.176 37 103.993 37V30.6116C104.376 30.6116 104.755 30.5325 105.109 30.3787C105.463 30.225 105.784 29.9996 106.055 29.7155C106.326 29.4314 106.541 29.0941 106.688 28.7228C106.834 28.3516 106.91 27.9538 106.91 27.552H113Z" fill="#081D71"/>
<path fill-rule="evenodd" clip-rule="evenodd" d="M0.0866707 27.8569C0.0866707 27.8569 -0.225076 16.0496 0.333918 14.0427C0.892911 12.0357 2.06465 3.40697 12.9113 3.40697C16.8816 3.40697 19.6299 4.83186 21.5183 6.63849C25.0443 10.0099 26.1802 15.339 24.5104 20.0408C23.1882 23.7675 20.0994 27.8569 12.9077 27.8569V19.9123C12.9077 19.9123 17.308 20.1353 17.308 15.6338C17.308 11.1324 12.9077 11.3554 12.9077 11.3554C12.9077 11.3554 8.74032 11.4045 8.74032 15.751C8.74032 20.0975 8.62924 27.8607 8.62924 27.8607H0.0866707V27.8569Z" fill="#081D71"/>
<path d="M31.8186 24.8395L34.663 19.991C35.4741 20.6664 36.2452 21.2212 36.9763 21.6554C37.7074 22.0775 38.4271 22.3911 39.1353 22.5961C39.8436 22.8012 40.5633 22.9037 41.2944 22.9037C42.094 22.9037 42.7795 22.7951 43.3506 22.578C43.9332 22.3489 44.3788 22.0293 44.6872 21.6192C45.007 21.2091 45.167 20.7207 45.167 20.1538C45.167 19.4904 44.9556 18.9296 44.533 18.4713C44.1103 18.0009 43.5505 17.5908 42.8537 17.2411C42.1683 16.8793 41.4201 16.5235 40.609 16.1737C39.7865 15.8119 38.9469 15.4199 38.0901 14.9978C37.2447 14.5756 36.4679 14.063 35.7597 13.46C35.0514 12.8449 34.4745 12.1031 34.029 11.2347C33.5949 10.3664 33.3779 9.31103 33.3779 8.06875C33.3779 6.42847 33.7663 5.02337 34.5431 3.85346C35.3313 2.67149 36.4051 1.76692 37.7645 1.13976C39.1353 0.500528 40.6832 0.180914 42.4082 0.180914C43.6648 0.180914 44.9728 0.355797 46.3322 0.705564C47.703 1.05533 49.0795 1.59807 50.4618 2.33379L48.1143 7.45365C47.2918 6.92297 46.4007 6.50687 45.4411 6.20534C44.493 5.89176 43.6077 5.73497 42.7852 5.73497C42.134 5.73497 41.5628 5.83748 41.0716 6.04252C40.5918 6.23549 40.2149 6.5129 39.9407 6.87472C39.678 7.23655 39.5466 7.65868 39.5466 8.14112C39.5466 8.75623 39.7522 9.29294 40.1635 9.75125C40.5861 10.1975 41.1345 10.6015 41.8085 10.9634C42.4824 11.3252 43.2136 11.6931 44.0018 12.0669C44.8357 12.4408 45.681 12.8569 46.5378 13.3153C47.406 13.7736 48.1999 14.3163 48.9196 14.9435C49.6507 15.5586 50.2333 16.3003 50.6674 17.1687C51.1129 18.0371 51.3357 19.0804 51.3357 20.2985C51.3357 21.9026 50.9244 23.3198 50.102 24.55C49.2909 25.7682 48.1485 26.7149 46.6749 27.3903C45.2127 28.0658 43.5106 28.4035 41.5686 28.4035C39.7751 28.4035 38.0501 28.1019 36.3937 27.4989C34.7487 26.8838 33.2237 25.9973 31.8186 24.8395Z" fill="#081D71"/>
<path d="M57.1103 5.89779C56.402 5.89779 55.8023 5.63848 55.3111 5.11986C54.8313 4.58918 54.5914 3.94995 54.5914 3.20217C54.5914 2.46646 54.8313 1.83929 55.3111 1.32067C55.8023 0.78999 56.402 0.52465 57.1103 0.52465C57.83 0.52465 58.4354 0.78999 58.9266 1.32067C59.4179 1.83929 59.6635 2.46646 59.6635 3.20217C59.6635 3.94995 59.4179 4.58918 58.9266 5.11986C58.4354 5.63848 57.83 5.89779 57.1103 5.89779ZM59.9376 27.8607H54.3172V9.76934H59.9376V27.8607Z" fill="#081D71"/>
<path d="M69.3963 36.9064H63.7588V9.76934H68.6938L68.9679 12.1755C69.6762 11.3071 70.5273 10.6317 71.5211 10.1493C72.515 9.65476 73.5945 9.40752 74.7597 9.40752C76.2904 9.40752 77.6498 9.81759 78.8379 10.6377C80.0259 11.4458 80.9627 12.5614 81.6481 13.9846C82.3335 15.3958 82.6762 17.0059 82.6762 18.815C82.6762 20.6242 82.3335 22.2403 81.6481 23.6635C80.9627 25.0746 80.0259 26.1903 78.8379 27.0104C77.6498 27.8185 76.2904 28.2225 74.7597 28.2225C73.6973 28.2225 72.7092 28.0235 71.7953 27.6255C70.8928 27.2155 70.0932 26.6486 69.3963 25.9249V36.9064ZM73.1661 22.9037C73.8972 22.9037 74.5426 22.7288 75.1024 22.379C75.6736 22.0293 76.1134 21.5468 76.4218 20.9317C76.7417 20.3046 76.9016 19.599 76.9016 18.815C76.9016 18.019 76.7417 17.3134 76.4218 16.6983C76.1019 16.0832 75.6621 15.6008 75.1024 15.251C74.5426 14.8892 73.8972 14.7083 73.1661 14.7083C72.4807 14.7083 71.8581 14.8711 71.2983 15.1968C70.75 15.5103 70.3102 15.9506 69.9789 16.5174C69.6476 17.0722 69.4534 17.7175 69.3963 18.4532V19.2311C69.4534 19.9427 69.6476 20.5759 69.9789 21.1307C70.3102 21.6855 70.75 22.1197 71.2983 22.4333C71.8581 22.7469 72.4807 22.9037 73.1661 22.9037Z" fill="#081D71"/>
<path d="M91.5523 27.8607H85.5207V0H91.5523V27.8607Z" fill="#081D71"/>
</svg>
