<svg width="89" height="29" viewBox="0 0 89 29" fill="none" xmlns="http://www.w3.org/2000/svg">
<path d="M74.8115 6.92954H79.6024V14.48H74.8115V6.92954Z" fill="white"/>
<path d="M84.209 14.48H88.9999V21.74H84.209V14.48Z" fill="white"/>
<path d="M81.9979 24.0632V29H74.8116V24.0632H81.9979Z" fill="white"/>
<path d="M84.2091 6.92954H89V20.9656H84.2091V6.92954Z" fill="white"/>
<path d="M89 14.3348C89 15.3072 88.8165 16.2702 88.46 17.1686C88.1035 18.0671 87.5809 18.8834 86.9222 19.571C86.2634 20.2587 85.4813 20.8041 84.6206 21.1763C83.7599 21.5484 82.8374 21.74 81.9058 21.74C80.9742 21.74 80.0517 21.5484 79.191 21.1763C78.3303 20.8041 77.5482 20.2587 76.8895 19.571C76.2307 18.8834 75.7081 18.0671 75.3516 17.1686C74.9951 16.2702 74.8116 15.3072 74.8116 14.3348H79.6084C79.6084 14.6497 79.6678 14.9615 79.7833 15.2525C79.8987 15.5434 80.068 15.8078 80.2813 16.0305C80.4946 16.2532 80.7479 16.4298 81.0266 16.5503C81.3054 16.6709 81.6041 16.7329 81.9058 16.7329C82.2075 16.7329 82.5062 16.6709 82.785 16.5503C83.0637 16.4298 83.317 16.2532 83.5303 16.0305C83.7436 15.8078 83.9129 15.5434 84.0283 15.2525C84.1438 14.9615 84.2032 14.6497 84.2032 14.3348H89Z" fill="white"/>
<path d="M89 21.5948C89 22.5672 88.8165 23.5302 88.46 24.4286C88.1035 25.3271 87.5809 26.1434 86.9222 26.8311C86.2634 27.5187 85.4813 28.0642 84.6206 28.4363C83.7599 28.8085 82.8374 29 81.9058 29V23.9929C82.2075 23.9929 82.5062 23.9309 82.785 23.8104C83.0637 23.6898 83.317 23.5132 83.5303 23.2905C83.7436 23.0678 83.9129 22.8035 84.0283 22.5125C84.1438 22.2215 84.2032 21.9097 84.2032 21.5948H89Z" fill="white"/>
<path fill-rule="evenodd" clip-rule="evenodd" d="M0.0682627 21.8338C0.0682627 21.8338 -0.177272 12.5794 0.262997 11.0064C0.703266 9.43339 1.62614 2.67033 10.1691 2.67033C13.2961 2.67033 15.4608 3.78714 16.9481 5.20314C19.7252 7.84557 20.6198 12.0225 19.3046 15.7077C18.2632 18.6285 15.8305 21.8338 10.1662 21.8338V15.6069C10.1662 15.6069 13.6319 15.7817 13.6319 12.2536C13.6319 8.72538 10.1662 8.90016 10.1662 8.90016C10.1662 8.90016 6.88397 8.93867 6.88397 12.3454C6.88397 15.7521 6.79648 21.8368 6.79648 21.8368H0.0682627V21.8338Z" fill="white"/>
<path d="M25.0606 19.4688L27.301 15.6686C27.9398 16.198 28.5471 16.6328 29.1229 16.9731C29.6987 17.304 30.2656 17.5498 30.8234 17.7105C31.3812 17.8712 31.9481 17.9515 32.5239 17.9515C33.1537 17.9515 33.6936 17.8665 34.1434 17.6963C34.6023 17.5167 34.9532 17.2662 35.1961 16.9448C35.448 16.6234 35.574 16.2405 35.574 15.7962C35.574 15.2763 35.4075 14.8367 35.0746 14.4775C34.7417 14.1088 34.3009 13.7874 33.752 13.5133C33.2122 13.2297 32.6229 12.9508 31.9841 12.6767C31.3363 12.3931 30.675 12.0859 30.0002 11.755C29.3344 11.4241 28.7225 11.0224 28.1647 10.5497C27.6069 10.0676 27.1525 9.48624 26.8016 8.80561C26.4597 8.12498 26.2888 7.29783 26.2888 6.32416C26.2888 5.03853 26.5947 3.93724 27.2065 3.02028C27.8273 2.09387 28.6731 1.38489 29.7437 0.893323C30.8234 0.392306 32.0425 0.141797 33.4011 0.141797C34.3908 0.141797 35.421 0.278868 36.4917 0.553009C37.5714 0.827151 38.6556 1.25254 39.7442 1.82918L37.8953 5.84205C37.2475 5.42611 36.5457 5.09998 35.7899 4.86365C35.0431 4.61786 34.3459 4.49497 33.6981 4.49497C33.1852 4.49497 32.7353 4.57533 32.3485 4.73603C31.9706 4.88728 31.6737 5.1047 31.4577 5.3883C31.2508 5.67189 31.1473 6.00275 31.1473 6.38088C31.1473 6.86299 31.3093 7.28365 31.6332 7.64287C31.9661 7.99264 32.3979 8.30932 32.9288 8.59291C33.4596 8.87651 34.0354 9.16483 34.6563 9.45788C35.3131 9.75093 35.9789 10.0771 36.6537 10.4363C37.3375 10.7955 37.9628 11.2209 38.5296 11.7125C39.1054 12.1946 39.5643 12.7759 39.9062 13.4566C40.2571 14.1372 40.4325 14.9549 40.4325 15.9097C40.4325 17.1669 40.1086 18.2777 39.4608 19.2419C38.822 20.1967 37.9223 20.9387 36.7616 21.4681C35.61 21.9975 34.2694 22.2622 32.7398 22.2622C31.3273 22.2622 29.9687 22.0258 28.6641 21.5532C27.3684 21.0711 26.1673 20.3763 25.0606 19.4688Z" fill="white"/>
<path d="M44.9807 4.62259C44.4228 4.62259 43.9505 4.41935 43.5636 4.01286C43.1857 3.59692 42.9968 3.09591 42.9968 2.50981C42.9968 1.93317 43.1857 1.44161 43.5636 1.03512C43.9505 0.619181 44.4228 0.411212 44.9807 0.411212C45.5475 0.411212 46.0244 0.619181 46.4112 1.03512C46.7981 1.44161 46.9916 1.93317 46.9916 2.50981C46.9916 3.09591 46.7981 3.59692 46.4112 4.01286C46.0244 4.41935 45.5475 4.62259 44.9807 4.62259ZM47.2075 21.8368H42.7808V7.65705H47.2075V21.8368Z" fill="white"/>
<path d="M54.6573 28.9266H50.2171V7.65705H54.1039L54.3199 9.54296C54.8777 8.86233 55.548 8.33295 56.3308 7.95483C57.1135 7.56725 57.9638 7.37346 58.8815 7.37346C60.0872 7.37346 61.1578 7.69486 62.0936 8.33768C63.0293 8.97104 63.7671 9.84546 64.3069 10.9609C64.8467 12.0669 65.1166 13.3289 65.1166 14.7469C65.1166 16.1649 64.8467 17.4316 64.3069 18.5471C63.7671 19.6531 63.0293 20.5275 62.0936 21.1703C61.1578 21.8037 60.0872 22.1204 58.8815 22.1204C58.0448 22.1204 57.2665 21.9644 56.5467 21.6524C55.8359 21.331 55.2061 20.8867 54.6573 20.3195V28.9266ZM57.6264 17.9515C58.2022 17.9515 58.7106 17.8145 59.1514 17.5403C59.6013 17.2662 59.9477 16.8881 60.1906 16.4059C60.4425 15.9144 60.5685 15.3614 60.5685 14.7469C60.5685 14.123 60.4425 13.57 60.1906 13.0879C59.9387 12.6058 59.5923 12.2277 59.1514 11.9535C58.7106 11.6699 58.2022 11.5281 57.6264 11.5281C57.0866 11.5281 56.5962 11.6557 56.1553 11.911C55.7235 12.1568 55.3771 12.5018 55.1161 12.9461C54.8552 13.3809 54.7023 13.8867 54.6573 14.4633V15.073C54.7023 15.6308 54.8552 16.1271 55.1161 16.5619C55.3771 16.9968 55.7235 17.3371 56.1553 17.5829C56.5962 17.8286 57.0866 17.9515 57.6264 17.9515Z" fill="white"/>
<path d="M72.1076 21.8368H67.357V0H72.1076V21.8368Z" fill="white"/>
</svg>
